<svg version="1.2" xmlns="http://www.w3.org/2000/svg" viewBox="0 0 1138 860" width="1138" height="860"><defs><linearGradient id="P" gradientUnits="userSpaceOnUse"/><linearGradient id="g1" x2="1" href="#P" gradientTransform="matrix(0,-591.09,202.452,0,481.63,710.31)"><stop stop-color="#808080" stop-opacity=".25"/><stop offset=".54" stop-color="#808080" stop-opacity=".12"/><stop offset="1" stop-color="#808080" stop-opacity=".1"/></linearGradient><linearGradient id="g2" x2="1" href="#P" gradientTransform="matrix(0,-610.81,195.002,0,672.23,761.79)"><stop stop-color="#808080" stop-opacity=".25"/><stop offset=".54" stop-color="#808080" stop-opacity=".12"/><stop offset="1" stop-color="#808080" stop-opacity=".1"/></linearGradient><linearGradient id="g3" x2="1" href="#P" gradientTransform="matrix(0,-587.57,207.568,0,844.89,807.17)"><stop stop-color="#808080" stop-opacity=".25"/><stop offset=".54" stop-color="#808080" stop-opacity=".12"/><stop offset="1" stop-color="#808080" stop-opacity=".1"/></linearGradient><linearGradient id="g4" x2="1" href="#P" gradientTransform="matrix(0,-588.8,219.142,0,317.91,798.54)"><stop stop-color="#808080" stop-opacity=".25"/><stop offset=".54" stop-color="#808080" stop-opacity=".12"/><stop offset="1" stop-color="#808080" stop-opacity=".1"/></linearGradient><linearGradient id="g5" x2="1" href="#P" gradientTransform="matrix(0,-137.62,109.544,0,530.54,855.3)"><stop stop-color="#808080" stop-opacity=".25"/><stop offset=".54" stop-color="#808080" stop-opacity=".12"/><stop offset="1" stop-color="#808080" stop-opacity=".1"/></linearGradient></defs><style>.a{opacity:.1;fill:#2d3436}.b{opacity:.1;fill:#007bff}.c{fill:url(#g1)}.d{fill:#d38884}.e{fill:#636e72}.f{fill:#b07473}.g{opacity:.1}.h{fill:#2d3436}.i{fill:#67647e}.j{fill:#585268}.k{fill:#e1e7ef}.l{fill:url(#g2)}.m{fill:#a27772}.n{fill:#cc818c}.o{fill:#f6f8fb}.p{fill:url(#g3)}.q{fill:#fbbebe}.r{fill:#7c5c5c}.s{fill:url(#g4)}.t{fill:#fdc2cc}.u{fill:#d39999}.v{fill:#7e5659}.w{fill:#865a61}.x{fill:url(#g5)}.y{opacity:.5;fill:#fff}.z{fill:#3f2b3b}.A{fill:none;stroke:#3f2b3b;stroke-miterlimit:10}.B{fill:#575d5e}.C{fill:#575d5e;stroke:#3f2b3b;stroke-miterlimit:10}.D{fill:#a8a8a8}.E{opacity:.2}</style><path class="a" d="m12.3 406.5c18 70.2 56.1 130.8 116.3 160.2 125.2 61.1 407.5 29.6 618.1-6.6 109-18.7 204.8-70.3 274.4-143z"/><path class="a" d="m1117 76.3h-115.5c-5.5 0-10-4.1-10-9.1 0-5 4.4-9.1 10-9.1h20c-5.5 0-10-4.1-10-9.1 0-5 4.4-9.1 10-9.1h-14.3c-5.5 0-10-4.1-10-9.1 0-5 4.5-9.1 10-9.1h60.3c-13.4-5.7-29-9.7-47-11.9-164.6-19.2-223.3-6.5-244 6.6q-9.7 6.2-19.9 11.4-10.2 5.3-20.8 9.5-10.7 4.3-21.6 7.5-11 3.2-22.3 5.4c-101.5 19.1-291.3 42.1-463.4-7.3-85.5-24.6-149 17-187.1 86.3h1095.7c-1.4-20.2-5.7-38.8-13.6-55.1q-0.6 0.5-1.4 1-0.8 0.4-1.6 0.7-0.8 0.2-1.7 0.4-0.9 0.1-1.8 0.1z"/><path fill-rule="evenodd" class="a" d="m1092.3 318.3q-7 13.4-15 26.3-7.9 12.9-16.8 25.2-8.8 12.3-18.5 23.9-9.7 11.7-20.2 22.6l-1014.8-33.8q-2.8-15.1-4.5-30.4-1.7-15.3-2.2-30.7-0.6-15.3 0-30.7 0.5-15.3 2.2-30.6zm-678.5 20c0-5.1-4.5-9.2-10-9.2h-14.3c5.5 0 10-4 10-9.1 0-5-4.5-9.1-10-9.1h-115.6c-5.5 0-10 4.1-10 9.1 0 5.1 4.5 9.1 10 9.1h14.3c-5.5 0-10 4.1-10 9.2 0 5 4.5 9.1 10 9.1h-20c-5.5 0-10 4.1-10 9.1 0 5 4.5 9.1 10 9.1h115.6c5.5 0 10-4.1 10-9.1 0-5-4.6-9.1-10-9.1h20c5.5 0 10-4.1 10-9.1z"/><path fill-rule="evenodd" class="a" d="m1133.8 192.2q-1.2 8.5-2.9 16.9-1.7 8.4-3.7 16.7-2 8.3-4.4 16.5-2.3 8.3-5 16.4h-1115.2c4.1-37 13.1-72.7 26.6-104.3l1108-24.6c1.3 19.6 0 40.6-3.4 62.4zm-896.2 9c0-5-4.5-9.1-10-9.1h-14.3c5.5 0 10-4.1 10-9.1 0-5-4.5-9.1-10-9.1h-115.6c-5.5 0-10 4.1-10 9.1 0 5 4.5 9.1 10 9.1h14.3c-5.5 0-10 4.1-10 9.1 0 5 4.5 9.1 10 9.1h-20c-5.5 0-10 4.1-10 9.1 0 5 4.5 9.1 10 9.1h115.6c5.5 0 10-4.1 10-9.1 0-5-4.5-9.1-10-9.1h20c5.5 0 10-4.1 10-9.1z"/><path class="a" d="m664.3 766.8c-41.6 0-75.2-7.5-75.2-16.9 0-9.3 33.6-16.8 75.2-16.8 41.6 0 75.3 7.5 75.3 16.8 0 9.4-33.7 16.9-75.3 16.9z"/><path class="b" d="m839.1 814.7c-75 0-135.7-5-135.7-11.1 0-6.2 60.7-11.2 135.7-11.2 75.1 0 135.8 5 135.8 11.2 0 6.1-60.7 11.1-135.8 11.1z"/><path class="a" d="m294.2 803.6c-75 0-135.7-7.6-135.7-16.9 0-9.4 60.7-16.9 135.7-16.9 75.1 0 135.7 7.5 135.7 16.9 0 9.3-60.6 16.9-135.7 16.9z"/><path class="a" d="m501.1 719c-56.4 0-102.1-7.5-102.1-16.9 0-9.3 45.7-16.9 102.1-16.9 56.5 0 102.2 7.6 102.2 16.9 0 9.4-45.7 16.9-102.2 16.9z"/><path class="b" d="m529.7 859.7c-45.2 0-81.8-7.5-81.8-16.9 0-9.3 36.6-16.9 81.8-16.9 45.2 0 81.7 7.6 81.7 16.9 0 9.4-36.5 16.9-81.7 16.9z"/><path fill-rule="evenodd" class="c" d="m580.5 355.4c-6.8 16-6.2 47.8-6.2 47.8 0 0-3.9 5.8-5.5 4.3-1.6-1.6 0.6 6.1 0.6 6.1q0 0-0.1 0.4l0.1 0.4h-0.3c-1.7 5.9-11.8 39.2-21.5 29.9 2.3 19.1 4.3 40 4.3 40 0 0 9.7 38.9 5.6 42.8-4.2 3.8-3.7 16.3-3.7 16.3 6.2 11.9 2.6 33.7 2.6 33.7l0.6 63.4c-8.8 14.4-8.1 27.3-8.1 27.3h-1.1l8 12.1c0 0 1.9 6 14.2 12.5 4.9 2.6 7.1 5.7 7.7 8.5q0.2 0.7 0.2 1.4 0 0.7-0.1 1.4-0.1 0.7-0.3 1.3-0.3 0.7-0.6 1.3-0.3 0.5-0.7 1-0.4 0.4-0.9 0.8-0.4 0.4-0.9 0.7-0.6 0.3-1.1 0.4l-0.3 0.1c-4.8 1-23.2 1-23.2 1 0 0-18.6-14.1-24.2-14.5-5.7-0.3-8.7-5.1-8.7-5.1 0 0 0.1-3.3 0.5-7.2 0.4-4.5 1.2-9.8 2.6-11.2 1.1-1.2 1.9-2.6 2.9-3.5l-3 0.1c-7.1-4.7-2-17.8-2-17.8v-32.7c0 0-4.5-31.9-2.3-40.8 2.1-8.8-9.1-25.2-9.1-25.2l-1.6-17.8c-5.5-7.1-8.1-46.5-8.1-46.5l-5.9-19.8c0.2 0.9 3.4 17.4 0 20.5-3.3 3.2-4.4 16.6-4.4 16.6 0 0 3.1 37.3 0 44.9-3.2 7.5 0.8 11.8 0.8 11.8l0.6 38.8c0 0-2.7 10.4 0.3 25.1 3 14.7 0 37.3 0 37.3h-3.3c0.5 1.8 1.9 6.7 2.7 7.1 0.6 0.3 1 6 1.2 10.9 0.1 2.5 0.1 4.9 0 6.1-0.2 3.5-4.2 3.7-4.2 3.7-11.7 1.8-14.1 6.3-14.1 6.3 0 0-11.3 11-28.2 9.4-14.3-1.3-12.9-3.9-12.2-8.6q0.1-0.3 0.1-0.6 0.1-0.3 0.1-0.7 0-0.3 0-0.6 0-0.4 0-0.7c0-6.4 5-8.2 12.8-13 7.8-4.8 7.6-8.9 10.8-12.4q0.6-0.8 1.1-1.6 0.5-0.8 0.9-1.7 0.4-0.9 0.7-1.8 0.3-0.9 0.4-1.9l0.2-15.7-5-13.4c0 0-3.5-55.3-6.2-67.3q-0.6-2.6-0.8-5.3-0.1-2.7 0.3-5.4 0.3-2.7 1.2-5.3 0.8-2.6 2.1-4.9c0 0-5.7-9.2-5.4-15.6 0.3-6.4-4.4-18.7-4.4-18.7l-6.7-45q0-2 0-4-0.1-2-0.2-4-0.1-2-0.4-4-0.2-2-0.5-3.9c-6.8 2.1-18.5-17.3-21.6-22.8-0.5-0.9-0.8-1.4-0.8-1.4l-0.9-5.4c0 0-1.9-1-6.2-2.9-4.3-1.8-7.2-24.5-7.2-24.5 0 0-4.2-11.4-11.4-31.3-7.2-20 2.2-47.9 2.2-47.9l7.5-33c-1.3-21.9 8-34.6 8-34.6l42.7-34.4q0.5-0.3 1-0.5 0.5-0.2 1-0.3 0.5 0 1 0.1 0.6 0.1 1 0.3l0.5 0.2c0.2-3.5 0.2-7.3 0.1-10.9q0-0.5 0-1-0.1 0.1-0.2 0.2-0.1 0.1-0.3 0.1-0.1 0.1-0.3 0.1-0.1 0.1-0.3 0.1-0.1 0-0.3 0-0.8 0-1.6-0.2-0.9-0.1-1.7-0.5-0.8-0.3-1.5-0.7-0.7-0.5-1.3-1.1l0.6 0.2q-0.3-0.2-0.5-0.5-0.3-0.2-0.5-0.4-0.2-0.3-0.4-0.5-0.3-0.3-0.5-0.5c-1.8-2.5-2.9-5.3-4.2-8q-0.8-1.4-1.6-2.8-0.8-1.3-1.7-2.6-0.8-1.3-1.7-2.6-0.9-1.3-1.9-2.5-2.8-3.7-5.5-7.4-0.3-0.5-0.6-0.9-0.3-0.4-0.7-0.8-0.3-0.4-0.7-0.7-0.4-0.4-0.8-0.7-0.4-0.3-0.7-0.5-0.4-0.3-0.8-0.5-0.3-0.3-0.7-0.5-0.3-0.3-0.7-0.5c-1.9-1.9-2.2-4.9-1.5-7.5 0.6-2.6 1.9-4.9 2.8-7.5 0.9-2.5 1.3-5.4-0.1-7.7-0.5-1-1.5-1.9-1.7-3.1-0.3-1.5 0.7-3.1 1.8-4.2 4.6-5.1 11.4-7.5 17.6-10.6 3.3-1.7 6.5-3.6 10-4.7 6.2-2 13-1.4 19.2 0.4 8.2 2.4 16.2 7.2 19.8 14.8 1.7 3.2 1.6 6.5-0.6 8.8q0.8 0.5 1.5 1.1c3.7 2.9 6.7 6.5 8.9 10.6 2.1 4.1 3.3 8.7 3.6 13.3 0.3 4.7-0.5 9.3-2.2 13.7-1.7 4.3-4.3 8.3-7.6 11.5 0 0.5 0.1 1 0.2 1.5q0.2 1.2 0.6 2.4 0.3 1.2 0.8 2.3 0.6 1.1 1.2 2.1 0.7 1.1 1.5 2 0.1 0 0.2 0 0.1-0.1 0.1-0.1 0.1 0 0.2 0 0.1 0 0.2 0-0.1-0.1-0.2-0.3-0.1-0.1-0.2-0.2-0.2-0.1-0.3-0.2-0.1-0.1-0.3-0.2l46.5 10c0 0 12.9 2.8 22.3 35q0.4 1.5 0.8 3c0 0 13.2 33.9 15.4 48.4 0 0 9.7 39.1 3 55.1zm-37-39l1 37.1 1 39.4c1.5-6.3 2.8-11.6 2.8-11.6 0 0 1.2-41.4 0.2-60.8v0.1zm-125.6 0.4c0 0 2.3 3.2-1.2 10.5-3.4 7.3-3 16.9-3 17.3 0 0.4 4.8 18.4 3.2 25.2-1.2 5.3 2.2 15.3 3.8 19.5 1-5.1 2.2-9.5 3.6-12.1 4.9-8.8 0-70.1 0-70.1-3.5-2.3-6.4 9.7-6.4 9.7z"/><path class="d" d="m436.3 445.2c-4.3 18.8-21.3-9.6-25.1-16.4-0.5-0.9-0.8-1.4-0.8-1.4l1.8-8.6 9.8-4q0.5 0.3 1.1 0.6 0.6 0.3 1.1 0.7 0.6 0.3 1.1 0.7 0.5 0.4 1 0.8c5.3 4.2 13.3 13.1 10 27.6z"/><path class="d" d="m568 414.5c0 0 0 0.1-0.1 0.4 0 0.2-0.1 0.3-0.1 0.5-1.7 5.8-11.6 38.8-21.2 29.7-10.4-10-5.3-33.2-5.3-33.2l22-2.2 4.4 4.5z"/><path class="e" d="m555.3 576.9l0.6 63c-8.7 14.3-8 27-8 27l-28.4 1.1c-7-4.7-2-17.7-2-17.7v-32.4c0 0-4.4-31.7-2.3-40.5 2.1-8.8-8.9-25-8.9-25l-1.5-17.7c-5.4-7.1-8-46.1-8-46.1l-5.7-19.7c0.1 0.8 3.1 17.3 0 20.3-3.2 3-4.4 16.4-4.4 16.4 0 0 3.1 37.1 0 44.6-3.1 7.5 0.8 11.7 0.8 11.7l0.6 38.5c0 0-2.7 10.4 0.3 24.9 2.9 14.6 0 37.1 0 37.1h-30.6l0.2-15.7-5-13.3c0 0-3.4-54.9-6-66.8q-0.6-2.6-0.8-5.3-0.1-2.7 0.3-5.4 0.3-2.6 1.2-5.2 0.8-2.5 2.1-4.9c0.8-1.6-5.7-9-5.4-15.4 0.3-6.4-4.4-18.5-4.4-18.5l-6.5-44.7q0-3.3-0.1-6.5-0.2-3.2-0.6-6.4-0.4-3.2-1.1-6.4-0.6-3.1-1.5-6.2c-3.8-12.8-9.5-29.5-9.5-29.5l6.4 0.6 32.3 2.9c0 0 78.3-5.3 81.9-0.9q0.2 0.5 0.5 1.1 0.2 0.5 0.4 1.1 0.2 0.6 0.3 1.2 0.1 0.6 0.2 1.2c3.6 15.8 8.2 65.3 8.2 65.3 0 0 9.5 38.6 5.4 42.5-4.1 3.8-3.6 16.2-3.6 16.2 6.1 11.8 2.6 33.5 2.6 33.5z"/><path class="f" d="m489 686.3c-0.2 3.5-4.1 3.7-4.1 3.7-11.5 1.8-13.9 6.3-13.9 6.3 0 0-11 10.9-27.6 9.3-14.1-1.3-12.7-3.9-12-8.5q0.1-0.3 0.1-0.7 0-0.3 0.1-0.6 0-0.3 0-0.7 0-0.3 0-0.6c0-6.4 4.9-8.2 12.5-13 7.7-4.8 7.5-8.8 10.7-12.3 3.1-3.5 3.5-10.3 3.5-10.3 3.6-6.3 12.7 1 12.7 1 0.4 2.2 14 1.9 14 1.9 0 0 1.8 7.2 2.7 7.6 0.6 0.3 1.1 6 1.3 10.8 0.1 2.6 0.1 4.9 0 6.1z"/><path class="g" d="m489 686.3c-0.2 3.5-4.1 3.7-4.1 3.7-11.5 1.8-13.9 6.3-13.9 6.3 0 0-11 10.9-27.6 9.3-14.1-1.3-12.7-3.9-12-8.5 6.3 1.6 18.3 3.7 25.4-0.1 9.7-5.3 16.8-9 16.8-9l15.4-7.8c0.1 2.6 0.1 4.9 0 6.1z"/><path class="f" d="m575.4 705.2q-0.3 0.5-0.7 0.9-0.3 0.5-0.8 0.9-0.4 0.4-1 0.6-0.5 0.3-1 0.5l-0.3 0.1c-4.7 1-22.7 1-22.7 1 0 0-18.3-14.1-23.8-14.5-5.5-0.3-8.5-5.1-8.5-5.1 0 0 0.1-3.2 0.5-7.1 0.4-4.5 1.2-9.7 2.5-11.1 2.4-2.6 3-6 8.5-3.8 0 0 7.8-13.9 17.1-3.2l9.5 14.5c0 0 1.8 6 13.9 12.5 4.9 2.6 7 5.7 7.6 8.5q0.2 0.7 0.2 1.3 0 0.7-0.1 1.4-0.1 0.7-0.3 1.3-0.3 0.7-0.6 1.3z"/><path class="g" d="m575.4 705.2q-1.6 1.4-3.5 2.9l-0.3 0.1c-4.7 1-22.7 1-22.7 1 0 0-18.3-14.1-23.8-14.5-5.5-0.3-8.5-5.1-8.5-5.1 0 0 0.1-3.2 0.5-7.1 5.6 1.7 14.1 4.7 16.4 7.9 3.5 4.9 14.1 11.7 14.1 11.7 0 0 19.8-2 28.6-2.2q0.2 0.7 0.2 1.3 0 0.7-0.1 1.4-0.1 0.7-0.3 1.3-0.3 0.7-0.6 1.3z"/><path class="d" d="m498.3 211.4l-26.1 27.6c0 0-31.7-2.3-26.2-11.7 2.9-4.7 3.3-14.7 3-23.4-0.2-8.3-1-15.4-1-15.4 0 0 44.3-22.1 41-1.5q-0.3 1.4-0.5 2.9-0.1 1.5-0.1 2.9 0 1.5 0.1 3 0.1 1.5 0.3 2.9c1.9 10.4 9.5 12.7 9.5 12.7z"/><path class="g" d="m488.9 187q-0.3 1.4-0.4 2.9-0.1 1.5-0.2 2.9 0 1.5 0.1 3 0.2 1.5 0.4 2.9-2.3 2.3-5 4.1-2.6 1.9-5.6 3.1-3 1.3-6.2 1.9-3.2 0.6-6.4 0.6c-6 0-12.5-4.9-17.4-7.8-0.2-8.3-0.2-12.1-0.2-12.1 0 0 44.3-22.1 40.9-1.5z"/><path class="d" d="m498.3 174c0 15.3-10.6 28.5-25.4 31.9-14.9 3.4-30.2-3.9-36.8-17.7-6.6-13.7-2.8-30.2 9.1-39.7 11.9-9.5 28.8-9.5 40.8 0q2.8 2.3 5.1 5.2 2.3 2.8 3.9 6.2 1.6 3.3 2.4 6.9 0.9 3.5 0.9 7.2z"/><path class="g" d="m542.7 419.4c-8.1 19.3-60.5 19.7-60.5 19.7v-21.1l-3.1-0.2c1.3 6.1-2 20.8-2 20.8-41.3 5.8-51.4-17.7-51.4-17.7l1.4-8.1 32.2 2.9c0 0 78.4-5.3 81.9-0.9q0.3 0.5 0.6 1.1 0.2 0.5 0.4 1.1 0.2 0.6 0.3 1.2 0.1 0.6 0.2 1.2z"/><path class="h" d="m482.2 436.6v-21.1l-3.1-0.2c1.3 6-2 20.8-2 20.8-31.1 4.4-44.5-7.9-49.3-14.2q-0.3-0.5-0.6-0.9-0.3-0.4-0.5-0.9-0.3-0.4-0.6-0.8-0.2-0.5-0.4-1l12.6-71.1 3-104.6 4.5-18.4 1.1-8.8v-0.1h0.1l3.2 1.4 19.3 8.3 21.9-16.5 0.3-0.2 1.1-0.9 1.8 1.5 4.5 3.6 14.4 93.2c0 0 25 71.7 29.7 100.7q0.3 1.7 0.5 3.2c3.1 26.5-61.5 27-61.5 27z"/><path class="i" d="m471.8 228.9c-1 0-1.8-0.8-1.8-1.8 0-1 0.8-1.9 1.8-1.9 1.1 0 1.9 0.9 1.9 1.9 0 1-0.8 1.8-1.9 1.8z"/><path class="i" d="m472.7 245.9c-1 0-1.9-0.8-1.9-1.8 0-1.1 0.9-1.9 1.9-1.9 1 0 1.9 0.8 1.9 1.9 0 1-0.9 1.8-1.9 1.8z"/><path class="i" d="m474.6 273.4c-1.1 0-1.9-0.8-1.9-1.8 0-1.1 0.8-1.9 1.8-1.9 1.1 0 1.9 0.8 1.9 1.9 0 1-0.8 1.8-1.9 1.8z"/><path class="i" d="m477.6 303c-1 0-1.8-0.8-1.8-1.8 0-1.1 0.8-1.9 1.8-1.9 1 0 1.9 0.8 1.9 1.9 0 1-0.9 1.8-1.9 1.8z"/><path class="i" d="m479.5 330.8c-1 0-1.9-0.8-1.9-1.8 0-1.1 0.9-1.9 1.9-1.9 1 0 1.8 0.8 1.8 1.9 0 1-0.8 1.8-1.8 1.8z"/><path class="i" d="m481.3 360.4c-1 0-1.8-0.8-1.8-1.8 0-1 0.8-1.9 1.8-1.9 1.1 0 1.9 0.9 1.9 1.9 0 1-0.8 1.8-1.9 1.8z"/><path class="i" d="m480.6 389.7c-1 0-1.9-0.8-1.9-1.8 0-1.1 0.9-1.9 1.9-1.9 1 0 1.9 0.8 1.9 1.9 0 1-0.9 1.8-1.9 1.8z"/><path class="g" d="m448.1 357.6c0 0-2.1 27.2-5.9 35.1-3.8 7.9-5.5 30.2-5.5 30.2l-8.9-1q-0.3-0.4-0.6-0.9-0.3-0.4-0.5-0.8-0.3-0.5-0.6-0.9-0.2-0.5-0.4-1l12.6-71.1 3-104.6 4.5-18.4 1.1-8.8h0.1q0.4-0.2 0.8-0.3 0.4-0.1 0.8-0.1 0.4 0 0.8 0.1 0.4 0.1 0.8 0.3l0.4 0.2q-0.2 0.6-0.4 1.1c-3.4 10.9-4.7 30.8-4.7 30.8 0 0 5 36.5 5.5 53.5 0.5 17-2.9 56.6-2.9 56.6z"/><path class="g" d="m426.3 417.6q0 0.1-0.1 0.2 0 0.1 0 0.2-0.1 0-0.1 0.1-0.1 0.1-0.1 0.2c-3.5 5.8-12.2 9.5-14.8 10.5-0.5-0.9-0.8-1.4-0.8-1.4l1.8-8.6 9.8-4q0.5 0.3 1.1 0.6 0.6 0.3 1.1 0.7 0.6 0.3 1.1 0.7 0.5 0.4 1 0.8z"/><path class="e" d="m402.8 278.7l-8.1 4.8-7.4 32.7c0 0-9.2 27.7-2.1 47.5 7.1 19.8 11.2 31.2 11.2 31.2 0 0 2.8 22.5 7.1 24.3 4.2 1.8 6 2.8 6 2.8l0.9 5.4c0 0 11.5-3.9 15.6-10.8 4-6.9-3-24-3-24 0 0-6.1-14.6-4.5-21.4 1.5-6.8-3.2-24.6-3.2-25 0-0.3-0.4-9.9 3-17.2 3.5-7.2 1.2-10.4 1.2-10.4l-2.2-20.8z"/><path class="g" d="m543.4 413.2c0 0-21.4 8.1-28.2 1-6.7-7-6.1-40.1-6.1-40.1 0 0-6.5-61.2-10.6-71.2-4.1-10.1-2-82.5-2-82.5 0 0-2.7-9.4-5.1-11.8q-0.1-0.1-0.1-0.2-0.1 0-0.2-0.1 0 0-0.1-0.1-0.1 0-0.1 0l0.8 0.1 2.9 0.7 4.5 3.6 14.4 93.2c0 0 25 71.7 29.7 100.7z"/><path class="g" d="m568 415.4h-0.2c-2.7 0.3-26.4 3.2-26.6-1.8q0-0.2 0.1-0.4 0-0.2 0-0.4 0-0.2 0-0.4 0-0.3 0-0.5l22-2.2 4.4 4.5q0.1 0.4 0.2 0.7z"/><path class="e" d="m545.2 245.9l15.6 8.2c0 0 13 33.6 15.1 48.1 0 0 9.7 38.6 3 54.5-6.6 15.9-6.1 47.5-6.1 47.5 0 0-3.8 5.8-5.3 4.2-1.6-1.5 0.5 6.1 0.5 6.1 0 0-26.6 3.6-26.7-1.7-0.2-5.2 6.1-30.3 6.1-30.3 0 0 1.7-59.5-0.7-68.9-2.5-9.3-1.5-67.7-1.5-67.7z"/><path class="g" d="m498.7 309.4c0 0-8.8 21.5-11.6 22.9-2.9 1.4 0.6 7.1 0.6 7.1 0 0 15.9-22.4 11-30z"/><path class="g" d="m493.4 234c0.2-0.4-10.4 10.3-13.3 12-2.8 1.6 10.4-0.1 13.4-12z"/><path class="g" d="m464 307.7c0 0-16.1 10.4-14 14.5 2.1 4.2 14-14.5 14-14.5z"/><path class="g" d="m493.3 459.9c0 0 13.7 8.9 35.1 11z"/><path class="g" d="m460.3 481.2c0 0 12.8 16 18.6 16.4 5.8 0.4-18.6-16.4-18.6-16.4z"/><path class="g" d="m478.2 543.9c-0.6 0.2-7.3 14.4-14 14.8-6.8 0.5 14-14.8 14-14.8z"/><path class="g" d="m537.2 574.9c0 0 12.6-2.9 15.4 6.2 0 0-0.9-2.9-15.4-6.2z"/><path class="g" d="m528.7 626.6c0 0 15.3-3.1 18.5 1.1 3.3 4.3-18.5-1.1-18.5-1.1z"/><path class="g" d="m485.4 633.9c0 0.1-15.5 3.1-15 5.1 0.6 1.9 16.6 1.7 17.2-1.5q0.2-0.5 0.1-1.1-0.1-0.6-0.4-1.2-0.3-0.5-0.8-0.8-0.5-0.4-1.1-0.5z"/><path class="g" d="m523.6 647.3c0 0 25.6-3.1 24 2.2-1.6 5.4-24-2.2-24-2.2z"/><path class="g" d="m389.7 332.3c0.2 0.4 16.9 2.7 19.1 8.1 0 0-16.4-7.7-19-7.7"/><path class="g" d="m413.2 376c0 0-13.9 4.4-12.9 11 1 6.6-1.4-3 12.9-11z"/><path class="g" d="m406.8 409.7c0 0 5-6.9 9.8-5.7 4.8 1.3-9.8 5.7-9.8 5.7z"/><path class="g" d="m486 148.5q-0.2 0.2-0.4 0.3-0.2 0.2-0.4 0.3-0.2 0.2-0.4 0.3-0.2 0.2-0.5 0.3c-4 2.3-5.1 5.9-7 10.1-1.7 3.8-3.7 7.8-7.3 9.9-4.6 2.8-10.6 1.8-15.4 4.2q-1.6 0.8-2.9 2.1-1.3 1.2-2.1 2.8-0.9 1.6-1.2 3.4-0.4 1.7-0.2 3.5 0.1 0.7 0.2 1.4 0.2 0.7 0.3 1.4 0.2 0.6 0.4 1.3 0.2 0.7 0.4 1.3 0.4 1.5 0.7 2.9 0.3 1.5 0.5 3 0.2 1.4 0.3 2.9 0 1.5 0 3 0 0.1 0 0.1 0 0 0 0.1 0 0 0 0.1 0 0 0 0.1c-8.3-4.2-14.4-11.6-16.9-20.6-2.5-8.9-1-18.5 4-26.3 5-7.8 13-13.1 22.2-14.6 9.1-1.5 18.5 0.9 25.7 6.7z"/><path class="j" d="m485.1 138.6c-3.6-7.5-11.4-12.3-19.4-14.6-6.2-1.8-12.8-2.4-18.9-0.4-3.5 1.1-6.6 3-9.9 4.6-6 3.1-12.7 5.5-17.2 10.5-1.1 1.2-2 2.7-1.8 4.3 0.3 1.1 1.2 2 1.7 3 1.3 2.3 1 5.2 0.1 7.7-0.9 2.5-2.2 4.8-2.8 7.4-0.6 2.6-0.4 5.6 1.5 7.4 0.9 0.8 2 1.3 2.9 2q0.4 0.3 0.7 0.7 0.4 0.4 0.8 0.8 0.3 0.3 0.6 0.8 0.3 0.4 0.6 0.8l5.4 7.4q1 1.2 1.9 2.5 0.8 1.2 1.7 2.5 0.8 1.3 1.6 2.7 0.8 1.3 1.6 2.7c1.3 2.6 2.3 5.5 4.1 7.9 1.8 2.4 4.6 4.3 7.6 4q0.2 0 0.4 0 0.1 0 0.3-0.1 0.1-0.1 0.3-0.2 0.1-0.1 0.2-0.2 0.1-0.1 0.1-0.2 0-0.1 0-0.2 0.1-0.1 0.1-0.2 0-0.1 0-0.2 0-1.5 0-2.9-0.1-1.5-0.3-3-0.2-1.5-0.5-2.9-0.3-1.5-0.7-2.9-0.2-0.7-0.4-1.3-0.2-0.7-0.4-1.4-0.1-0.7-0.3-1.4-0.1-0.6-0.2-1.3-0.2-1.8 0.2-3.6 0.3-1.7 1.2-3.3 0.8-1.6 2.1-2.9 1.3-1.2 2.9-2.1c4.8-2.4 10.8-1.4 15.4-4.1 3.6-2.2 5.6-6.2 7.3-10 2-4.2 3-7.8 7-10.1 4-2.3 4.5-6.2 2.5-10.2z"/><path class="g" d="m470.5 672.9c0 0 5 6.4 3.7 10-1.3 3.6-3.7-10-3.7-10z"/><path class="g" d="m538.1 688.9c0 0 1.1-8.6 5.6-8.7 4.4 0 4.6-0.4 8 0.9 3.5 1.3 6.6 3.3 5.6 3.6-1 0.3-5.8-4.8-10.8-2.2q-1.1 0.6-2.3 1.4-1.1 0.7-2.1 1.5-1.1 0.8-2.1 1.6-1 0.9-1.9 1.9z"/><path class="g" d="m455.5 235.7l14-9.8c0 0-20.4-12.1-22.9-10.4-2.4 1.7-4.1 17-4.1 17z"/><path class="k" d="m455.5 235.1l14-10c0 0-20.5-12.1-22.9-10.4-2.5 1.7-4.2 17.9-4.2 17.9z"/><path class="h" d="m455.5 235.1l14-10c0 0-20.5-12.1-22.9-10.4-2.5 1.7-4.2 17.9-4.2 17.9z"/><path class="e" d="m448.9 214.8l-0.4-0.2q-0.5-0.3-1-0.4-0.5-0.1-1.1 0-0.5 0.1-1 0.3-0.5 0.2-0.9 0.5l-42 34.1c0 0-9.1 12.6-7.8 34.4l24.7 35.1c0 0 2.9-11.9 6.3-9.6 0 0 4.8 60.8 0 69.6-4.8 8.7-7 41.6-7 41.6l16.3 1.8c0 0 1.7-22.2 5.5-30.1 3.8-7.9 5.9-35.2 5.9-35.2 0 0 3.5-39.5 2.9-56.5-0.6-17-5.5-53.5-5.5-53.5 0 0 1.4-21.4 5.1-31.9z"/><path class="g" d="m490.7 229.5l-17.4-6.4c0 0 22.2-24.4 25-10.9z"/><path class="k" d="m490.7 228.7l-17.4-6.5c0 0 22.2-24.3 25-10.8z"/><path class="h" d="m490.7 228.7l-17.4-6.5c0 0 22.2-24.3 25-10.8z"/><path class="g" d="m490.2 208q0.1 0 0.1 0 0.1 0 0.2 0 0.1 0 0.2 0 0.1 0.1 0.2 0.1z"/><path class="e" d="m491.8 206.3l46.3 10c0 0 12.8 2.8 22 34.8 9.2 32-12.6 71.2-12.6 71.2l-4.8-4.1 2.4 93.4c0 0-21.4 8-28.2 1-6.8-7.1-6.1-40.3-6.1-40.3 0 0-6.5-61.1-10.6-71.1-4.1-10.1-2-82.5-2-82.5 0 0-3.8-13-6.4-12.4z"/><path class="g" d="m534.2 265.8c-0.6 0.6-1.4 28.9 1.4 50.4q0.7 4.9 1.5 9.8 0.8 4.8 1.8 9.7 1 4.9 2.2 9.7 1.2 4.8 2.5 9.5l-4.2-86.1c0 0-3.2-4.8-5.2-3z"/><path class="g" d="m528.5 241.5c1.2 0.7 6.1 12.4 3.9 17.2-2.3 4.8-3.9-17.2-3.9-17.2z"/><path class="g" d="m484.8 138.6q-0.8-1.6-1.9-3.1-1.1-1.6-2.4-2.9-1.3-1.4-2.7-2.5-1.5-1.2-3.1-2.1 1.2 0.9 2.3 1.9 1.1 1 2 2.1 1 1.2 1.8 2.4 0.8 1.3 1.5 2.6c2 4 1.4 8-2.5 10.2-3.9 2.2-5.1 5.9-7 10-1.8 3.8-3.7 7.8-7.3 10-4.6 2.8-10.7 1.8-15.5 4.2q-1.5 0.8-2.8 2.1-1.3 1.3-2.2 2.9-0.8 1.5-1.2 3.3-0.3 1.8-0.2 3.6 0.2 0.6 0.3 1.3 0.1 0.7 0.3 1.4 0.2 0.7 0.4 1.3 0.2 0.7 0.4 1.4 0.4 1.4 0.7 2.9 0.3 1.4 0.5 2.9 0.2 1.5 0.2 3 0.1 1.4 0.1 2.9 0 0.1 0 0.2 0 0.1-0.1 0.2 0 0.1 0 0.2 0 0.1-0.1 0.2-0.1 0.1-0.2 0.2-0.2 0.1-0.3 0.2-0.2 0.1-0.3 0.1-0.2 0.1-0.4 0.1-0.4 0-0.9 0-0.4-0.1-0.9-0.1-0.4-0.1-0.8-0.3-0.5-0.1-0.9-0.3 0.6 0.6 1.3 1 0.7 0.5 1.5 0.8 0.8 0.3 1.6 0.4 0.8 0.2 1.6 0.1 0.3 0.1 0.6 0 0.2-0.1 0.4-0.3 0.2-0.2 0.3-0.4 0.1-0.3 0.1-0.6 0-1.5 0-2.9-0.1-1.5-0.3-3-0.2-1.5-0.5-2.9-0.3-1.5-0.7-2.9-0.2-0.7-0.4-1.4-0.2-0.6-0.4-1.3-0.2-0.7-0.3-1.4-0.1-0.7-0.3-1.4-0.1-1.7 0.2-3.5 0.4-1.8 1.2-3.4 0.9-1.5 2.2-2.8 1.3-1.3 2.8-2.1c4.8-2.4 10.9-1.4 15.5-4.2 3.6-2.1 5.5-6.1 7.3-10 1.9-4.1 3-7.7 7-10 4-2.4 4.5-6.3 2.5-10.3z"/><path fill-rule="evenodd" class="l" d="m769.7 264.6q0 0.2-0.1 0.4 0 0.2 0 0.4-0.1 0.2-0.1 0.3h0.3c-0.9 7-8.2 11-14.6 13.8q-3.7 1.7-7.5 3.2c2.9 6.3 4.8 14.3 6 22q0.7 3.7 1.1 7.5 0.5 3.8 0.8 7.6 0.3 3.7 0.5 7.5 0.2 3.8 0.2 7.6h-0.1l2.4 38.8c0 0 3.2 20.5-20.4 15.5q-3.5-0.8-7-1.7-3.5-1-7-2.1-3.4-1.2-6.8-2.5-3.4-1.2-6.8-2.7c4.3 11.3 10.5 26.5 15 31.4 7.5 8.1 10.5 35.2 12.3 64.7 1.9 29.6 2.6 108 2.6 108h-0.7c-1.6 0-5.5 0.1-10 0.5 0.1 0.4 0.1 0.9 0.1 1.4 0.5 11.1 1.2 31.2-0.4 37.8-2.3 9.4-16.7 58.3-16.7 58.3l-1.9 29.3v0.7c0 0 3.1-2.2 2.3 7.8-0.7 10-1.2 24.9-1.2 24.9 0 0-0.1 16.3-15.8 16.3 0 0-15.6 3-15.5-5.9 0.1-6.1 3-8.2 4.9-8.9v-0.7l1.1-27q0.1-2.9 0.5-5.7 0.3-2.9 0.9-5.7 0.6-2.8 1.4-5.5 0.8-2.8 1.8-5.4c0.1-0.1 0.1-0.2 0.1-0.3q0.8-1.9 1.4-3.8 0.5-2 0.9-4 0.5-2 0.7-4 0.2-2 0.3-4l2.3-85.1v-1.5c-12.6 1.3-30.5 1.7-45.2 1.9q0.1 0.8 0.1 1.5c0.4 12.3 0.9 34.3-0.3 41-1.7 9.5-6.7 45.5-6.7 45.5 0 0-1.9 12.5 2 20l0.3 0.6q0-0.1-0.1-0.2 0 0 0-0.1-0.1-0.1-0.1-0.2-0.1 0-0.1-0.1c0 0 6.2-1.4 4.3 14.7q0.1 0.6 0 1.1 0 0.5-0.1 1-0.1 0.5-0.2 1-0.1 0.5-0.3 0.9l-1.2 22.8-9.4-2.4-1.5-8.3q-1.2 1.5-2.2 3.1-1.1 1.7-2 3.4-0.9 1.7-1.6 3.5-0.7 1.8-1.2 3.6 0 1.9-0.7 3.7-0.6 1.8-1.8 3.3-1.2 1.5-2.8 2.5-1.6 1-3.4 1.4c-5.6 1.3-12.7 2.5-16.7 1.3-7.6-2.1-4.3-7.2-4.3-7.2l8.6-10.4q0-0.1 0-0.1 0-0.1 0-0.2 0-0.1 0-0.2 0-0.1 0-0.2c0.4-4.5 5.5-14.6 9.5-21.8q1.1-2 1.9-4.1 0.8-2.2 1.4-4.4 0.5-2.2 0.7-4.5 0.2-2.2 0.1-4.5l-1.7-36c0 0-4.8-39.6-3.4-51.6 0.8-7 1-17.8 1.1-25.5q0-0.8 0-1.5-0.6 0.9-1 1.8-0.5 1-1 2-0.4 0.9-0.8 1.9-0.5 1-0.8 2-0.1 0-0.1 0 0 0 0-0.1 0 0 0 0-0.1 0-0.1 0v0.1c0 0-2.1-1.2-3-7l0.2-0.2c-0.5-3.6-0.5-8.8 0.7-16.5 3.4-20.8 4.5-111.8 4.5-111.8l6.9-68.4c-1.9-1.1-3.9-2.3-5.9-3.7l-4.4-5.3-5.3 1.5q0 0.1 0 0.1 0 0 0 0 0 0 0 0 0 0 0 0-0.1 0.2-0.1 0.3-0.1 0.2-0.3 0.3-0.1 0.1-0.2 0.2-0.1 0.1-0.3 0.2-0.1 0-0.2 0.1-0.1 0-0.3 0-0.1 0-0.2 0-0.1 0-0.3 0h-0.2q-0.2 0.1-0.4 0.2-0.2 0-0.4 0-0.2 0-0.5 0-0.2-0.1-0.4-0.2l-0.7-0.3q-0.3-0.1-0.6-0.2-0.3-0.1-0.6-0.2-0.3-0.2-0.6-0.3-0.3-0.2-0.6-0.4l-17.5-7.9c-8-3.6-3.5-24.6-3.5-24.6-0.5-3.2 0.9-9.5 2.8-16.3l-10-16.8 14.4 2.6c2.3-6.8 4.2-12 4.2-12l12.2-30.5c0 0 0-18.1 22.5-23.3q0.1-0.9 0.4-1.8 0.2-0.9 0.6-1.8 0.4-0.8 0.9-1.6 0.5-0.8 1.1-1.5c1.1-1.2 2.6-2.4 3.3-3.8 1-2.2 0.3-4.5-0.7-6.7-2.3-4.9-5.6-9.5-7.4-14.5-1.8-5-2-10.9 1.7-15.2 2-2.3 5-3.9 6.9-6.3q0.2-0.3 0.4-0.6 0.2-0.2 0.4-0.5 0.2-0.3 0.3-0.6 0.2-0.3 0.4-0.6-0.4-0.4-0.8-0.8-0.4-0.4-0.7-0.8-0.3-0.5-0.5-1-0.3-0.4-0.5-0.9-0.2-0.5-0.3-0.9-0.1-0.4-0.1-0.9-0.1-0.4-0.1-0.9 0-0.4 0-0.9 0-0.8 0.1-1.7 0.1-0.9 0.3-1.7 0.2-0.8 0.5-1.7 0.3-0.8 0.7-1.5c1.4-2.7 3.3-5.1 4.3-8 1.6-4.2 1.1-8.9 2.8-13.1 2.9-7.3 11.3-10.5 18.8-13 2.2-0.7 4.6-1.5 6.9-0.9 3 0.7 5 3.4 7.5 5.3 10.2 7.5 26.8-0.8 36.6 7.2 3.8 3.1 5.6 8 6.2 12.8q0.1 0.7 0.1 1.4 0.1 0.7 0.1 1.5 0.1 0.7 0.1 1.4 0 0.7-0.1 1.5c0.1 3.4-0.2 6.8-0.3 10.2v0.4c0.1 7.9 1.9 16.3 7.9 21.5 1.9 1.7 4.2 3 6 4.7 1.9 1.7 3.4 4.2 3 6.7 0 0.1 0 0 0 0.1q0.1 0.2 0.1 0.3 0 0.2 0 0.4 0 0.2 0 0.4 0 0.1-0.1 0.3-0.1 0.4-0.2 0.9-0.1 0.4-0.2 0.8-0.1 0.5-0.3 0.9-0.1 0.4-0.3 0.8 0 0.3-0.1 0.6-0.1 0.3-0.1 0.5-0.1 0.3-0.1 0.6 0 0.3 0 0.6 0.1 1.2 0.4 2.4 0.3 1.3 0.7 2.4 0.4 1.2 1 2.4 0.5 1.1 1.2 2.1c6.9 11.9 19 21.7 32.8 21.9q0 0.2 0 0.4zm-58.8 447.9v-0.1-0.1zm-0.3 28.3l0.3-28.3-0.3 3.6zm-87.4-424.1l-7.5 12.2 7.4 10c0.3-7.7 0.4-14.6 0.4-18.6zm105 32.9q-0.7-0.9-1.4-2-0.7-1-1.2-2.1-0.5-1-0.9-2.2-0.4-1.1-0.7-2.3l-0.7 0.2 0.6-0.6-0.4 0.1-0.6 0.6 0.4-0.1-1.1 1q-1.1 1.1-2.1 2.2-1 1.1-2 2.3-1 1.2-1.9 2.5-0.9 1.2-1.7 2.5l12.5 4c0 0 5.7-1.2 1.2-6.1z"/><path class="m" d="m651.1 715.7l-1.4 27.6-9.3-2.3-2-11.5 12.7-13.8z"/><path class="g" d="m651.1 715.7l-1.4 27.6-9.3-2.3-2-11.5 12.7-13.8z"/><path class="n" d="m685.3 747l14.2 3 10.6-9.3v-26.3l0.2-3.5v-0.1-0.8l2-29.1c0 0 14.2-48.5 16.4-57.8 1.5-6.6 0.9-26.6 0.4-37.6-0.3-4.5-0.4-7.5-0.4-7.5l-31.4-7.6-0.6 24.1-2.3 84.5q-0.1 2-0.3 4-0.3 2-0.7 3.9-0.4 2-0.9 4-0.6 1.9-1.3 3.8l-0.1 0.3q-1.1 2.6-1.9 5.3-0.8 2.7-1.3 5.5-0.6 2.8-1 5.6-0.3 2.8-0.4 5.7l-1.1 26.8v0.8z"/><path class="g" d="m710.3 710v0.8-0.8z"/><path class="g" d="m685.3 747l14.2 3 10.6-9.3v-2.3q-0.1 0.4-0.2 0.7-0.1 0.4-0.3 0.7-0.2 0.3-0.5 0.6-0.2 0.2-0.6 0.4l-0.1 0.1q-1.8 1-3.8 1.7-1.9 0.7-3.9 1.1-2.1 0.4-4.1 0.5-2.1 0.1-4.1-0.1l-5.6-0.5q-0.2 0-0.4 0-0.2 0.1-0.3 0.1-0.2 0.1-0.4 0.1-0.2 0.1-0.4 0.2v0.7z"/><path class="f" d="m708.4 741.6h0.1q0.4-0.2 0.7-0.5 0.3-0.3 0.5-0.6 0.2-0.4 0.3-0.8 0.1-0.3 0.1-0.7l0.2-28.3c0 0 3.1-2.1 2.3 7.8-0.7 9.9-1.2 24.7-1.2 24.7 0 0-0.1 16.2-15.5 16.2 0 0-15.5 2.9-15.4-5.9 0.2-8.8 6.4-9.2 6.4-9.2l5.6 0.5q2 0.2 4.1 0.1 2-0.1 4.1-0.5 2-0.4 3.9-1.1 2-0.7 3.8-1.7z"/><path class="n" d="m611.4 741c0.3 6.4 19.1 2.7 19.1 2.7l12.6-24.5c0 0 10.5-8.1 5.2-15.2q-0.1-0.1-0.2-0.3-0.1-0.1-0.2-0.3-0.1-0.1-0.2-0.3-0.1-0.1-0.1-0.3c-0.1-0.1 0 0-0.1 0q-0.2-0.3-0.3-0.6c-3.8-7.5-1.9-19.8-1.9-19.8 0 0 4.9-35.8 6.6-45.2 1.2-6.7 0.7-28.5 0.3-40.7-0.2-5.1-0.3-8.5-0.3-8.5l-31.1-8.4c0 0 0 3.9 0 9.3-0.1 7.7-0.3 18.4-1.1 25.4-1.4 11.9 3.4 51.2 3.4 51.2l1.7 35.8q0.1 2.2-0.1 4.5-0.2 2.2-0.7 4.4-0.6 2.2-1.4 4.4-0.8 2.1-1.8 4.1c-3.9 7.1-9 17.2-9.4 21.6q0 0.1 0 0.2 0 0.1 0 0.2 0 0.1 0 0.1 0 0.1 0 0.2z"/><path class="g" d="m611.4 741c0.3 6.4 19.1 2.7 19.1 2.7l12.6-24.5c0 0 10.5-8.1 5.2-15.2q-0.1-0.1-0.2-0.3-0.1-0.1-0.2-0.3-0.1-0.1-0.2-0.3-0.1-0.1-0.1-0.3c-0.2 3.7-4.3 13-4.3 13 0 0-10.4 20.8-13.7 25.6-3.3 4.8-17.7-0.9-18.2-1.1q0 0.1 0 0.2 0 0.1 0 0.2 0 0.1 0 0.1 0 0.1 0 0.2z"/><path class="f" d="m647.2 702.2c0 0 6.2-1.5 4.3 14.6q0.1 1.3-0.2 2.7-0.3 1.3-1 2.5-0.6 1.2-1.6 2.2-0.9 1-2 1.7c-4.5 2.8-11.3 8.8-14.7 20.4q0 1.8-0.6 3.6-0.6 1.8-1.8 3.3-1.2 1.4-2.7 2.4-1.6 1-3.5 1.5c-5.5 1.3-12.4 2.4-16.4 1.3-7.5-2.1-4.2-7.2-4.2-7.2l8.6-10.2c0 0 14.9 5.9 18.2 1.1 3.3-4.8 13.7-25.6 13.7-25.6 0 0 5.7-13 3.9-14.3z"/><path class="g" d="m697.3 573.4l-0.6 24.1c8.3-0.8 14.3-2 15.3-3.5 2.2-3.5 10.2-4.9 17.1-5.5-0.2-4.5-0.4-7.5-0.4-7.5z"/><path class="g" d="m620.8 591.9q0.3-0.7 0.6-1.2 0.4-0.6 0.8-1.1 0.5-0.5 1-1 0.5-0.5 1-0.9c3.3-1.8 3 11.8 3 11.8 0 0 11 0.1 25-0.1-0.2-5.1-0.3-8.5-0.3-8.5l-31.1-8.3c0 0 0 3.8 0 9.3z"/><path class="e" d="m617.2 595.1c0 0 3.7-10 7-11.8 3.4-1.8 3 11.8 3 11.8 0 0 80.8 0.7 84.8-5.6 4.1-6.2 27.6-5.8 27.6-5.8 0 0-0.8-77.9-2.6-107.3-1.8-29.4-4.8-56.2-12.1-64.3-4.8-5.2-11.5-22.1-15.7-33.4-2.3-6.2-3.8-10.7-3.8-10.7l-77.1 4.4-0.7 6.3-8.1 81.9c0 0-1.1 90.4-4.5 110.9-3.3 20.6 2.2 23.6 2.2 23.6z"/><g style="opacity:.1"><path  d="m705.8 589.5c4-6.2 27.5-5.8 27.5-5.8 0 0-0.7-77.9-2.6-107.3-1.8-29.4-4.7-56.2-12.1-64.3-4.8-5.2-11.5-22.1-15.7-33.4-1.9-5.2-3.3-9.2-3.6-10.3l6-0.4c0 0 1.5 4.5 3.8 10.7 4.1 11.3 10.9 28.2 15.6 33.4 7.4 8.1 10.3 34.9 12.2 64.3 1.8 29.4 2.5 107.3 2.5 107.3 0 0-23.5-0.4-27.5 5.8-3.5 5.4-62.9 5.6-80.2 5.6 22.1-0.1 70.9-0.7 74.1-5.6z"/><path  d="m618 583.3c1.4-0.8 2.2 1.5 2.6 4.3q-0.6 0.9-1 1.8-0.5 0.9-0.9 1.9-0.5 0.9-0.9 1.9-0.4 0.9-0.7 1.9c-0.3 0.6-2.1-1.2-3-7 1.2-2.1 2.5-4.1 3.9-4.8z"/></g><path class="e" d="m641.1 179.6c-5.4 7.3 0 17.6-5.7 24.7-1.9 2.4-4.8 4-6.8 6.3-3.6 4.3-3.5 10.1-1.7 15.1 1.8 5 5 9.5 7.3 14.4 1 2.1 1.7 4.5 0.7 6.6-0.7 1.4-2.1 2.6-3.2 3.8-3.7 4.1-3.8 9.8-1.8 14.7 1.9 4.8 5.7 9 9.4 13.1 1.5 1.6 3.4 3.4 5.8 3.3q0.5 0 1-0.1 0.4-0.1 0.9-0.3 0.5-0.1 0.9-0.3 0.4-0.2 0.9-0.5c4.2-2.1 7.9-5.1 11-8.6 3.1-3.6 5.5-7.7 7.1-12.1 1.5-4.5 2.2-9.2 2-13.9-0.2-4.7-1.4-9.4-3.3-13.7-3.1-7.4-8.3-14.5-8.3-22.4 0-6.2 3.2-12.1 3.7-18.3 0.7-7.6-3.7-19.6-12.8-22.8 0.6 4.8-4.4 7.3-7.1 11z"/><path class="g" d="m641.1 179.6c-5.4 7.3 0 17.6-5.7 24.7-1.9 2.4-4.8 4-6.8 6.3-3.6 4.3-3.5 10.1-1.7 15.1 1.8 5 5 9.5 7.3 14.4 1 2.1 1.7 4.5 0.7 6.6-0.7 1.4-2.1 2.6-3.2 3.8-3.7 4.1-3.8 9.8-1.8 14.7 1.9 4.8 5.7 9 9.4 13.1 1.5 1.6 3.4 3.4 5.8 3.3q0.5 0 1-0.1 0.4-0.1 0.9-0.3 0.5-0.1 0.9-0.3 0.4-0.2 0.9-0.5c4.2-2.1 7.9-5.1 11-8.6 3.1-3.6 5.5-7.7 7.1-12.1 1.5-4.5 2.2-9.2 2-13.9-0.2-4.7-1.4-9.4-3.3-13.7-3.1-7.4-8.3-14.5-8.3-22.4 0-6.2 3.2-12.1 3.7-18.3 0.7-7.6-3.7-19.6-12.8-22.8 0.6 4.8-4.4 7.3-7.1 11z"/><path class="g" d="m700.3 444.4c-10.7 0.6-20.8 5.2-30.1 10.4-9.4 5.2-18.4 11.1-28.5 14.8"/><path class="g" d="m693.6 469.6q-3.9 0.4-7.7 1.4-3.8 1.1-7.3 2.8-3.6 1.8-6.8 4.1-3.2 2.3-5.9 5.2c-2.6 2.8-4.8 5.8-7.5 8.5q-1.6 1.5-3.3 2.8-1.8 1.3-3.6 2.3-1.9 1.1-3.9 1.9-2 0.8-4.1 1.4"/><path class="g" d="m695.8 488.8q-3.1 0.9-6.2 2.2-3 1.3-5.8 3-2.9 1.7-5.4 3.8-2.6 2-4.9 4.4c-1.6 1.8-3.1 3.7-4.7 5.5-8.9 9.5-21.4 14.5-33.5 19.3"/><path class="n" d="m694.9 222.9q0.1 3.2 0.3 6.4 0.2 3.2 0.5 6.4 0.2 3.2 0.6 6.4 0.4 3.2 0.8 6.3c1 6 2.4 11.4 4.4 13.8 5.9 7-28.6 16.4-28.6 16.4l-20.4-15.8c0 0 16.2-14.9 8.6-29.4-7.5-14.5 33.8-10.5 33.8-10.5z"/><path class="g" d="m627.6 378.7h81.6c-2.3-6.2-3.8-10.7-3.8-10.7l-77.1 4.4z"/><path class="h" d="m622.4 377.2h87.2c-2.5-8.8 0-16.9 3.5-23.1q0.9-1.6 1.9-3.2 1-1.6 2.2-3.1 1.1-1.5 2.4-2.8 1.2-1.4 2.6-2.7l0.6-0.6 30.4-6.7 1.7-0.4c0 0 0.2-55.3-19.4-62.9-19.6-7.6-31.3-17.9-31.3-17.9l-27 8.3-19.8-10c-6.4 6.9-23.3 4.2-23.3 4.2-27.6 3.1-27.6 24-27.6 24 0 0 16.1 37.7 17.4 37.7 1.2 0-1.5 59.2-1.5 59.2z"/><path class="g" d="m652.5 342c0 0-17.8-3.9-23.9-10.8"/><path class="g" d="m742.1 321.4l-20.6 16.9q0.1 0.5 0.1 1 0.1 0.5 0.2 1 0.1 0.5 0.2 1 0.1 0.5 0.2 1l0.6-0.6 30.4-6.7z"/><path class="g" d="m686.3 371.3c0 0 4.5 2.6 11.4 5.9h11.9c-2.5-8.8 0-16.9 3.5-23.1l-20.9-6.8c7.1 6.6-5.9 24-5.9 24z"/><path class="h" d="m618.7 273.6l-12.2 6.6-12 30.4c0 0-12.5 33.3-11.3 42.1 0 0-4.4 20.8 3.4 24.5l20.4 9.3q0.6 0.2 1.2 0.1 0.6-0.2 1-0.6 0.4-0.4 0.5-1 0-0.6-0.2-1.2c-2.9-5.5-6.1-14.1-1-18.8l-5.9-12.3 21.2-34.8 7.1-12z"/><path class="g" d="m645.9 335.1c1.1 4.3 4.7 11 16.5 13.5l13 10.6 13.9 6.3 5.6 2.5 2.4-17.2-5.4-3-6.4-3.5c0 0-14.3-25.9-36.9-15q-0.8 0.4-1.4 1-0.6 0.6-1 1.4-0.3 0.8-0.4 1.7-0.1 0.8 0.1 1.7z"/><path class="n" d="m646.7 333.6c1 4.3 4.6 11 16.5 13.5l13 10.6 13.8 6.3 5.6 2.6 2.4-17.3-5.4-3-6.3-3.4c0 0-14.3-25.9-36.9-15q-0.8 0.4-1.4 1-0.6 0.6-1 1.4-0.3 0.7-0.4 1.6-0.1 0.9 0.1 1.7z"/><path class="g" d="m672.1 245.3c-17.4 0-31.5-14.1-31.5-31.6 0-17.4 14.1-31.6 31.5-31.6 17.5 0 31.6 14.2 31.6 31.6 0 17.5-14.1 31.6-31.6 31.6z"/><path class="n" d="m672.1 244.6c-17.4 0-31.5-14.1-31.5-31.6 0-17.5 14.1-31.6 31.5-31.6 17.5 0 31.6 14.1 31.6 31.6 0 17.5-14.1 31.6-31.6 31.6z"/><path class="g" d="m691.7 280.5l-9.5-18.5c0 0 13.9-5.6 14.9-12.1 1-6.5 13.3 7.6 10.7 12.3-2.7 4.7-16.1 18.3-16.1 18.3z"/><path class="h" d="m691.7 279l-9.5-18.4c0 0 13.9-5.6 14.9-12.2 1-6.5 13.3 7.7 10.7 12.4-2.7 4.6-16.1 18.2-16.1 18.2z"/><path class="o" d="m614 326.7l52.5 70.6c0 0-19.4 10.5-46-8.3l-11.5-13.7-32.9-55.4z"/><path class="n" d="m603.6 365.1l4.8-0.1c0 0 29.2-28.4 36.4-14 7.2 14.3-18.2 27.7-18.2 27.7l-7.7 4.2-10.1 3-6.4-8.7z"/><path class="g" d="m610.7 380.4c0.4 1.6 0.9 3.4 0.1 4.9q-0.1 0.2-0.1 0.3-0.1 0.2-0.2 0.3-0.2 0.1-0.3 0.2-0.1 0.1-0.3 0.2-0.1 0-0.2 0.1-0.1 0-0.3 0-0.1 0-0.2 0-0.1 0-0.3 0-0.9-0.1-1.8-0.3-0.9-0.3-1.8-0.7-0.8-0.4-1.6-1-0.7-0.5-1.3-1.2-0.7-0.7-1.3-1.5-0.5-0.7-1.1-1.5-0.5-0.8-1-1.6-0.5-0.8-0.9-1.6c-1.3-2.3-2.7-4.8-2.2-7.4 0.5-2.8 3-4.7 5.4-6.3 4.9-3.2 5 0.5 6.1 4.6 1 4.2 2.2 8.3 3.3 12.5z"/><path class="h" d="m610 380.4c0.4 1.6 0.8 3.4 0.1 4.9q-0.1 0.2-0.2 0.3-0.1 0.2-0.2 0.3-0.1 0.1-0.2 0.2-0.1 0.1-0.3 0.2-0.1 0-0.2 0.1-0.2 0-0.3 0-0.1 0-0.2 0-0.2 0-0.3 0-0.9 0-1.8-0.3-0.9-0.3-1.8-0.7-0.8-0.4-1.6-1-0.7-0.5-1.4-1.2-0.6-0.7-1.2-1.5-0.6-0.7-1.1-1.5-0.6-0.8-1-1.6-0.5-0.8-1-1.6c-1.3-2.3-2.6-4.8-2.1-7.4 0.5-2.8 3-4.7 5.4-6.3 4.8-3.2 5 0.5 6.1 4.6 1 4.2 2.1 8.3 3.3 12.5z"/><path class="g" d="m623.9 317.9l2.4-4.1-2.1 7.7-0.3-3.6z"/><path class="g" d="m690 364l5.7 2.6 2.4-17.3-5.5-3c3.8 4.3 0.5 12.2-2.6 17.7z"/><path class="g" d="m712.6 344c0 0-18.1 1.1-25.9-3.9"/><g style="opacity:.1"><path  d="m710.4 355.6q0.9-1.7 1.9-3.2 1.1-1.6 2.2-3.1 1.1-1.5 2.4-2.9 1.2-1.4 2.6-2.7 0.3-0.2 0.7-0.4 0.3-0.2 0.6-0.4 0.4-0.1 0.7-0.3 0.3-0.2 0.7-0.4l28.3-5.8 1.7-0.3c0 0 0.2-55.4-19.4-63q-4.1-1.5-8.1-3.4-4-1.9-7.8-4-3.8-2.2-7.5-4.6-3.7-2.5-7.1-5.2l2.1-0.7c0 0 11.8 10.3 31.4 17.9 19.6 7.6 19.3 63 19.3 63h-2.9l-29 5.5c0 0-1.3 1.2-1.7 1.6q-1.3 1.3-2.6 2.8-1.3 1.5-2.4 3-1.2 1.5-2.2 3.1-1.1 1.7-2 3.3-1.5 2.7-2.3 5.6-0.9 2.8-1.2 5.8-0.4 3-0.1 6 0.3 3 1.1 5.9h-3c-2.4-8.8 0.1-16.9 3.6-23.1z"/><path  d="m633 257.9c0.4-0.1 0.9-0.2 1.4-0.2q0.7 0.1 1.5 0.2 0.7 0 1.5 0.1 0.7 0.1 1.5 0.1 0.7 0 1.5 0.1-0.9 0-1.9 0-0.9 0-1.8-0.1-1 0-1.9-0.1-0.9 0-1.8-0.1z"/><path  d="m674.5 263.6l-17.9-9.1q0.1-0.1 0.3-0.2 0.1-0.1 0.2-0.3 0.1-0.1 0.3-0.2 0.1-0.1 0.2-0.3l18.7 9.5z"/></g><path class="h" d="m742.8 319.9l12 14.7 2.5 39.9c0 0 3.2 20.3-20.1 15.4-23.2-4.9-50.2-20-50.2-20 0 0 13-17.4 5.9-24l33.3 10.7c0 0 5.7-1.2 1.2-6.1-4.4-4.9-5.1-13.7-5.1-13.7z"/><path class="g" d="m748.3 362l6.6 7.6q-1.3-0.4-2.4-1.1-1.1-0.7-2-1.7-0.9-1-1.5-2.2-0.5-1.3-0.7-2.6z"/><path class="g" d="m737 360.8l10.3 13.2-5.2 1.2-5.1-14.4z"/><path class="g" d="m634.4 198.5c-1.1-2.8-0.2-6 1.1-8.6 1.4-2.6 3.3-5.1 4.3-7.9 1.5-4.2 1-8.9 2.7-13 2.9-7.3 11.2-10.5 18.6-13 2.2-0.7 4.5-1.5 6.7-0.9 3 0.7 5 3.4 7.4 5.2 10.1 7.5 26.4-0.7 36.2 7.2 3.7 3 5.5 7.9 6.1 12.7 0.5 4.8 0 9.6-0.1 14.4-0.2 8.4 1.4 17.6 7.7 23.2 1.9 1.7 4.2 3 6 4.7 1.9 1.8 3.3 4.2 3 6.7q-0.1 0.4-0.2 0.9-0.1 0.4-0.2 0.8-0.1 0.4-0.3 0.9-0.1 0.4-0.3 0.8c-1.2 4.4 0.6 9 2.9 13 6.8 11.8 18.8 21.5 32.4 21.7-0.9 6.9-8 10.9-14.3 13.7-8 3.6-16.6 7.1-25.4 6.7-8.8-0.5-18-6.1-19.5-14.8-0.5-3-0.5-6.6-3-8.2-1.6-0.9-3.6-0.7-5.3-1.4-2.4-1-3.6-3.7-4.4-6.2q-0.6-2-1.1-4-0.5-1.9-0.8-4-0.3-2-0.5-4-0.2-2-0.2-4c-0.1-6.5 0.7-13.5-2.9-18.8-3.4-4.9-9.4-7.4-13.3-11.9-3.6-4.2-7.5-9.3-13.4-10-8.2-1.2-25.1 9.9-29.9-1.9z"/><path class="e" d="m634.4 197c-1.1-2.7-0.2-6 1.1-8.6 1.4-2.6 3.3-5.1 4.3-7.9 1.5-4.1 1-8.9 2.7-13 2.9-7.2 11.2-10.5 18.6-13 2.2-0.7 4.5-1.4 6.7-0.9 3 0.7 5 3.4 7.4 5.3 10.1 7.5 26.4-0.8 36.2 7.2 3.7 3 5.5 7.9 6.1 12.6 0.5 4.8 0 9.6-0.1 14.5-0.2 8.4 1.4 17.6 7.7 23.2 1.9 1.6 4.2 2.9 6 4.6 1.9 1.8 3.3 4.2 3 6.7q-0.1 0.5-0.2 0.9-0.1 0.4-0.2 0.8-0.1 0.5-0.3 0.9-0.1 0.4-0.3 0.8c-1.2 4.4 0.6 9 2.9 13 6.8 11.8 18.8 21.5 32.4 21.8-0.9 6.8-8 10.8-14.4 13.6-8 3.6-16.5 7.1-25.3 6.7-8.8-0.5-18-6.1-19.6-14.8-0.5-3-0.4-6.6-3-8.2-1.5-0.9-3.5-0.7-5.2-1.4-2.4-1-3.6-3.7-4.4-6.2q-0.7-2-1.1-3.9-0.5-2-0.8-4-0.4-2-0.5-4.1-0.2-2-0.2-4c-0.2-6.5 0.7-13.5-3-18.8-3.3-4.9-9.3-7.4-13.2-11.9-3.6-4.2-7.5-9.2-13.4-10-8.2-1.1-25.1 10-29.9-1.9z"/><path class="g" d="m656.8 278.2l18.2-14.7c0 0-12.4-6.7-13.9-12.4-1.5-5.8-11.4 2.7-10.4 7.8 1 5.2 6.1 19.3 6.1 19.3z"/><path class="h" d="m657.6 276l18.1-14.7c0 0-12.4-6.7-13.9-12.4-1.4-5.8-11.4 2.7-10.3 7.8 1 5.2 6.1 19.3 6.1 19.3z"/><path class="g" d="m676.4 275.1c-0.8-0.1-1.5-0.7-1.5-1.5 0-0.8 0.7-1.4 1.5-1.4 0.8 0 1.4 0.6 1.4 1.4 0 0.8-0.6 1.4-1.4 1.4z"/><path class="g" d="m676.4 283.1c-0.8-0.1-1.5-0.7-1.5-1.5 0-0.8 0.7-1.4 1.5-1.4 0.8 0 1.4 0.6 1.4 1.4 0 0.8-0.6 1.4-1.4 1.4z"/><path class="g" d="m676.4 291c-0.8 0-1.5-0.6-1.5-1.4 0-0.8 0.7-1.4 1.5-1.4 0.8 0 1.4 0.6 1.4 1.4 0 0.8-0.6 1.4-1.4 1.4z"/><g style="opacity:.1"><path  d="m641.7 176.6c1.5-3.9 1.1-8.3 2.5-12.3q-0.2 0.3-0.5 0.7-0.2 0.3-0.4 0.7-0.2 0.3-0.3 0.7-0.2 0.4-0.3 0.7c-1.7 4.2-1.2 8.9-2.8 13l-0.1 0.3q0.3-0.5 0.6-0.9 0.2-0.5 0.5-1 0.2-0.4 0.4-0.9 0.2-0.5 0.4-1z"/><path  d="m756 275.6c-8 3.6-16.5 7.1-25.4 6.6-8.8-0.4-18-6-19.5-14.7-0.5-3-0.5-6.6-3-8.2-1.5-0.9-3.6-0.7-5.2-1.4-2.5-1-3.7-3.7-4.5-6.3q-0.6-1.9-1.1-3.9-0.4-1.9-0.8-4-0.3-2-0.5-4-0.2-2-0.2-4.1c-0.1-6.4 0.8-13.4-2.9-18.7-3.4-4.9-9.4-7.4-13.3-11.9-3.6-4.2-7.5-9.3-13.4-10-8.1-1.1-25 10-29.8-1.9q-0.3-0.8-0.4-1.6-0.1-0.9-0.1-1.8 0.1-0.9 0.3-1.7 0.2-0.9 0.5-1.7-0.5 0.9-1 1.8c-1.3 2.7-2.2 5.8-1 8.6 4.8 11.8 21.6 0.7 29.7 1.8 5.9 0.8 9.8 5.9 13.4 10 3.9 4.6 9.9 7 13.3 12 3.7 5.3 2.8 12.3 2.9 18.7q0.1 2.1 0.2 4.1 0.2 2 0.6 4 0.3 2 0.8 4 0.4 2 1 3.9c0.8 2.5 2 5.2 4.5 6.3 1.6 0.7 3.7 0.4 5.2 1.4 2.6 1.5 2.5 5.2 3 8.2 1.6 8.6 10.8 14.3 19.6 14.7 8.8 0.5 17.2-3 25.3-6.6 5.8-2.6 12.3-6.2 14-12-2.8 3.8-7.7 6.4-12.2 8.4z"/></g><path fill-rule="evenodd" class="p" d="m947.8 371.9v18c0 0-5.7 56.7-23.9 63q-0.7 0.2-1.4 0.4-0.6 0.2-1.3 0.4-0.7 0.2-1.4 0.3-0.7 0.2-1.4 0.3c0.7 5.1 1.3 10 1.8 13.8 2 16.2 7.7 41.6 7.7 41.6l-1 0.2c0 0.4 0.1 0.7 0.1 1 2 15-0.3 39.4-0.3 39.4 0 0-2.8 18.2-6.8 36.6q-1 4.2-1.4 8.4-0.5 4.2-0.5 8.5 0 4.2 0.5 8.4 0.4 4.3 1.4 8.4-0.5 4.9-0.6 9.7 0 4.9 0.5 9.8 0.5 4.9 1.4 9.6 0.9 4.8 2.4 9.5 0.4 1.3 0.8 2.6c6.5 22.9-2.3 57.8-6.6 73.6-3.8 14.7-5.3 31.9-5.6 35.6q0.3 0.5 0.5 1 0.2 0.5 0.3 1.1 0.1 0.6 0.1 1.1 0 0.6-0.1 1.1c-1.9 7.6 4.5 18.2 4.7 18.4q0.2 0.2 0.3 0.5 0.2 0.2 0.4 0.5 0.1 0.2 0.2 0.5 0.2 0.3 0.3 0.6 0.4 1 0.6 2 0.1 1.1-0.1 2.2-0.1 1.1-0.6 2.1-0.4 1-1.1 1.8c-4.2 5.4-29 3.1-33.2 1.4-2.6-1-2.4-5.7-1.7-10.6 0.4-3.1 1.1-6.3 1.3-8.6 0.5-4.1-0.6-11-1.4-15l-0.2-0.1 0.1-0.7c-0.3-1.4-0.5-2.2-0.5-2.2 0 0 0.3 0.3 0.8 0.7l6.6-31.8c-5-20.1 0-73.9 0-73.9 0 0-11.4-20.8-12.4-52.5-1-31.1-8.9-41.2-9.1-41.5-16.2 8.2-36.8 96.7-36.8 96.7 1.7 21.4-0.3 54.4-7 72.2q-1.6 4.3-2.6 8.6-1.1 4.4-1.8 8.8-0.6 4.5-0.8 9-0.1 4.5 0.2 8.9-0.3 0.2-0.5 0.4-0.3 0.2-0.5 0.3-0.3 0.2-0.6 0.3-0.2 0.1-0.5 0.3c0.4 3.9 1.3 9.8 3 12q0.3 0.3 0.5 0.7 0.1 0.4 0.3 0.8 0.1 0.4 0.1 0.9 0 0.4-0.1 0.8-0.1 1.3-0.7 2.4-0.5 1.1-1.4 2-0.9 0.9-2 1.5-1.2 0.5-2.4 0.7c-9.1 1.3-31.2 4.7-36.7 7.3-7.1 3.3-35.1 1-36.4-2.3q-0.2-0.5-0.2-1-0.1-0.5 0-1 0.1-0.6 0.2-1 0.2-0.5 0.4-1 0.4-0.7 0.9-1.4 0.4-0.7 1-1.3 0.6-0.6 1.3-1.1 0.6-0.6 1.4-1 0.2-0.1 0.4-0.2 0.3-0.1 0.5-0.2 0.3-0.1 0.5-0.2 0.3-0.1 0.6-0.2c5.2-1.8 15.2-5.4 17.9-9.2 0 0 12.4-10.7 15.9-16.4q0.5-0.9 1.2-1.6 0.7-0.7 1.5-1.2 0.9-0.5 1.8-0.8 1-0.3 2-0.4h0.3c0.6-16.7 3.8-93.6 6.2-96.8 2.7-3.7 0-24.5 0-24.5l4.4-33.6c0 0-0.7-57.1 5.8-67 5.4-8.5 6.7-23.5 7-27.5 0-0.7 0-1 0-1-1.9-0.9-2.3-2.1 0-3.9 8.3-6.5 10.5-60.4 10.8-66.7v-0.6c-0.6 0.2-6.2 1.5-20.5-1.7-15.2-3.2-16.9-36.6-9.5-51.1 4.7-9.1 5.3-16.1 5-20.1q-0.1-1.7-0.1-3.3 0-1.7 0.2-3.4 0.1-1.7 0.4-3.4 0.2-1.6 0.6-3.3c6.6-26.4 24.6-24.2 24.6-24.2l30-12c3.5-3 4.6-7.2 4.6-11.2q0-0.5 0-1c-3.4-1.1-6.6-2.7-9.5-4.7-2.9-2.1-5.4-4.6-7.6-7.4-2.1-2.9-3.7-6.1-4.9-9.5-1.1-3.3-1.7-6.9-1.7-10.4q0-2.8 0.5-5.5 0.4-2.7 1.3-5.3 0.9-2.6 2.2-5 1.3-2.4 3-4.6l0.1-0.1q0-0.1 0-0.1 0-0.1 0-0.1 0-0.1 0-0.1-0.1-0.1-0.1-0.1c-0.3-1.1-0.2-2.2-0.5-3.3-0.8-2.6-3.6-3.9-5.5-5.9q-0.7-0.8-1.3-1.7-0.5-0.9-0.9-1.8-0.3-1-0.5-2-0.2-1.1-0.2-2.1v-0.4q0-1 0.2-2 0.1-1 0.4-1.9 0.2-0.9 0.6-1.8 0.4-0.9 0.8-1.8c2.2-3.8 6.4-7 10.8-6.3 2.7 0.5 5.2 2.4 7.8 2.5 2.7 0.2 5.1-1.3 7.6-2.3q2.1-1 4.5-1.6 2.3-0.6 4.6-0.8 2.4-0.2 4.8 0 2.4 0.2 4.7 0.7 0.7 0.2 1.4 0.4 0.7 0.2 1.3 0.6 0.7 0.3 1.3 0.7 0.6 0.4 1.1 0.9 0.4 0.4 0.7 0.9 0.4 0.4 0.7 0.9 0.4 0.5 0.7 1 0.3 0.4 0.6 0.9c3.2 4 8.8 4.7 13.8 5.6 5 0.9 10.7 2.8 12.3 7.6q0.2 0.4 0.3 0.8 0.1 0.4 0.1 0.8 0.1 0.4 0.1 0.9 0 0.4 0 0.8-0.1 0.9-0.1 1.7-0.1 0.9-0.3 1.7-0.1 0.8-0.3 1.7-0.1 0.8-0.4 1.6v0.2q0 0 0 0 0-0.1 0-0.1 0 0 0 0 0 0 0-0.1 0 0.3 0 0.5 0 0.2 0 0.4 0 0.2 0.1 0.4 0 0.2 0.1 0.4c0.8 1.3 2.8 0.7 4.3 1 2.8 0.6 3.5 4.2 3.6 7q0.2 4.9 0.3 9.8 0 0.6 0 1.1 0 0.4 0 0.7 0 0.4-0.1 0.7 0 0.4-0.1 0.7 0 0.4-0.1 0.7-0.2 0.7-0.5 1.3-0.3 0.6-0.7 1.2-0.4 0.5-0.8 1.1-0.4 0.5-0.9 1l-11.1 13.1c-4.4 5.1-8.9 11-9.3 17.4q0 0 0 0 0 0 0-0.1 0 0.2 0 0.3 0 0.2 0 0.4 0 0.2 0 0.3 0 0.2 0 0.4 0.5 1 1 1.9 0.6 1 1.3 1.8 0.7 0.9 1.4 1.6 0.8 0.8 1.7 1.5l0.4 0.3c0 0 8 3 29.2 15.1 21.2 12.3 15.1 39.9 15.1 39.9zm-50.1-63.5q0 0 0 0 0 0 0 0 0 0 0 0 0 0 0 0zm-101.4 461.4c0 0 0.3 0.2 0.9 0.5z"/><path class="e" d="m921.7 659.6c7.9 22.7-1.3 59.5-5.6 76-4.3 16.5-5.6 36.1-5.6 36.1-16.7 2.7-28.9-0.6-28.9-0.6l6.9-33.9c-4.9-20 0-73.6 0-73.6 0 0-11.2-20.8-12.2-52.3-1-31.1-8.6-41.2-8.8-41.5-15.8 8.3-35.9 96.4-35.9 96.4 1.7 21.4-0.3 54.3-6.9 72q-1.5 4.2-2.5 8.6-1.1 4.3-1.7 8.7-0.6 4.5-0.8 8.9-0.2 4.5 0.1 9c-2.3 2-5.5 2.3-9 1.7-9.4-1.5-20.7-9.6-20.7-9.6 0 0 3.6-96 6.3-99.7 2.6-3.6 0-24.3 0-24.3l4.3-33.5c0 0-0.7-56.9 5.5-66.8 5.4-8.5 6.7-23.5 6.9-27.4 0-0.6 0-1 0-1l9.5-11.4c0 0 92.1-6.9 99 0 1.7 1.7 2.8 5.5 3.4 10.4 1.9 14.9-0.3 39.2-0.3 39.2 0 0-2.7 18.1-6.7 36.5q-0.9 4.2-1.3 8.4-0.5 4.2-0.5 8.4 0 4.2 0.5 8.4 0.4 4.2 1.3 8.4-0.5 4.8-0.5 9.7 0 4.9 0.5 9.7 0.5 4.8 1.4 9.6 0.9 4.8 2.3 9.5z"/><path class="m" d="m916 803.8c-4.1 5.4-28.3 3.1-32.4 1.4-2.5-1-2.4-5.8-1.7-10.6 0.5-3.1 1.1-6.3 1.4-8.6 0.6-5.9-2-17.9-2-17.9 0 0 5.4 5.8 6.7 0 0.6-2.5 2.6-3.8 4.7-4.5q1-0.3 2.1-0.4 1.1-0.1 2.2-0.1 1.1 0.1 2.2 0.4 1 0.2 2 0.7c4.3 1.8 11.4 5.8 10.1 11.1-1.8 7.6 4.6 18.3 4.6 18.3q0.2 0.2 0.4 0.5 0.2 0.2 0.3 0.5 0.2 0.2 0.3 0.5 0.1 0.3 0.2 0.5 0.5 1 0.6 2.1 0.2 1.1 0 2.2-0.2 1-0.6 2-0.4 1-1.1 1.9z"/><path class="g" d="m916 803.8c-4.1 5.4-28.3 3.1-32.4 1.4-2.5-1-2.4-5.8-1.7-10.6 2.6 1.2 7 2.2 14.4 1.5q0.6 0 1.3-0.1 0.6 0 1.3 0 0.6-0.1 1.3-0.1 0.6 0 1.3 0.1 1.9 0 3.9 0.1 2 0 3.9 0 2-0.1 4-0.2 1.9-0.1 3.9-0.3 0.4 1 0.5 2.1 0.2 1.1 0 2.2-0.1 1-0.6 2-0.4 1-1.1 1.9z"/><path class="g" d="m831.6 666.1c1.7 21.4-0.3 54.3-6.9 72q-1.5 4.3-2.5 8.6-1.1 4.4-1.7 8.8-0.6 4.4-0.8 8.9-0.2 4.5 0.1 8.9c-2.3 2-5.5 2.3-9 1.7 2-13.8 10.4-73.6 15.8-120.8 6.2-53.8 35-90.8 35-90.8l5.8 6.4c-15.7 8.2-35.8 96.3-35.8 96.3z"/><path class="q" d="m906.1 320.5l-4 19.7-19.7 33.1-24.2-10.4c0 0-33-34.5-12.3-39.4q1-0.2 1.9-0.5 0.9-0.3 1.7-0.7 0.9-0.4 1.7-0.9 0.8-0.4 1.6-1c4.1-3.1 5.4-7.5 5.4-11.9q-0.1-1.8-0.3-3.6-0.3-1.8-0.7-3.6-0.4-1.8-1-3.5-0.6-1.8-1.4-3.4l42.5-13.3q-0.7 2-1.2 4.2-0.5 2.1-0.9 4.2-0.4 2.2-0.6 4.4-0.2 2.1-0.3 4.3c-0.4 11.6 4 17.3 7.4 20q0.5 0.4 1 0.8 0.6 0.3 1.1 0.6 0.6 0.3 1.1 0.5 0.6 0.2 1.2 0.4z"/><path class="g" d="m897.2 281.1q-0.6 2-1.1 4.2-0.6 2.1-0.9 4.2-0.4 2.2-0.6 4.4-0.3 2.1-0.4 4.3-0.3 0.4-0.6 0.7-0.3 0.4-0.6 0.7-0.3 0.3-0.6 0.6-0.3 0.3-0.7 0.7c-2.1 2-4.6 3.8-7.2 5.2-2.7 1.5-5.5 2.5-8.5 3.2-2.9 0.7-5.9 1-8.9 0.8-3-0.1-6-0.7-8.9-1.6q-0.1-1.8-0.3-3.6-0.2-1.8-0.7-3.6-0.4-1.8-1-3.5-0.6-1.8-1.4-3.4z"/><path class="q" d="m902.1 275.6c0 13.6-8.2 25.8-20.7 31-12.6 5.2-27 2.4-36.6-7.2-9.6-9.6-12.4-24.1-7.3-36.6 5.2-12.5 17.5-20.7 31-20.7 4.5 0 8.8 0.8 12.9 2.5 4.1 1.7 7.8 4.1 10.9 7.3 3.1 3.1 5.6 6.8 7.3 10.9 1.7 4 2.5 8.4 2.5 12.8z"/><path class="g" d="m906.1 320.5l-4 19.7-19.7 33.1-24.2-10.4c0 0-33-34.5-12.3-39.4q1-0.2 1.9-0.5 0.9-0.3 1.7-0.7 0.9-0.4 1.7-0.9 0.8-0.4 1.6-1c-3.7 10.3 11.7 31.7 11.7 31.7 1.8 2.6 5.9 1 5.9 1 10-1.5 28.3-30.1 31.3-34.9q0.5 0.4 1 0.7 0.5 0.4 1.1 0.7 0.5 0.3 1.1 0.5 0.6 0.2 1.2 0.4z"/><path class="g" d="m925.1 511.8c-5.9 1.3-38.2 8.5-50.4 6.7-13.5-2-39.7-3.3-39.7-3.3 0 0-16.7 0.9-21.8-1.5 0-0.6 0-1 0-1l9.5-11.3c0 0 92.1-7 99 0 1.7 1.7 2.8 5.5 3.4 10.4z"/><path class="h" d="m864.5 353.1c0 0-17.4-24-10.8-33.4l-29.3 12c0 0-17.7-2.2-24 24.2q-0.4 1.6-0.7 3.3-0.2 1.6-0.4 3.3-0.1 1.7-0.1 3.4 0 1.6 0.1 3.3c0.2 4-0.3 11-4.8 20-7.3 14.5-5.6 47.7 9.2 51 14.8 3.3 20 1.7 20 1.7 0 0-2 60.1-10.5 67.1-8.5 6.9 21.8 5.2 21.8 5.2 0 0 26.2 1.3 39.7 3.3 13.5 2 51.3-6.9 51.3-6.9 0 0-5.6-25.3-7.6-41.4-2-16.2-6.6-50.5-6.6-50.5l33.6-45.4c0 0 5.9-27.5-14.8-39.6-20.7-12.2-28.5-15.2-28.5-15.2 0 0-20.9 33.9-31.7 35.6 0-0.1-4.1 1.6-5.9-1z"/><path class="g" d="m826 362.6c0 0-0.3 10.9 1.7 15.1 1.9 4.3 9.2 28 9.2 28h-16.5c0 0 8.9-9.5 8.3-14.1-0.7-4.6-2.7-29-2.7-29z"/><path class="q" d="m874.7 444.5c0 0-36.3-8.9-39.7-16.4-3.4-7.6-12.7-24.5-12.7-24.5l3.8-5.2 17.7 13.9c0 0 21 16.7 30.9 18.4 9.9 1.6 0 13.8 0 13.8z"/><path class="g" d="m874.7 444.5c0 0-36.3-8.9-39.7-16.4-3.4-7.6-12.7-24.5-12.7-24.5l3.8-5.2 17.7 13.9c0 0 21 16.7 30.9 18.4 9.9 1.6 0 13.8 0 13.8z"/><path class="q" d="m906.1 401.7v19.7h-3.2q-5.8 0-11.6 0.8-5.8 0.7-11.5 2.2-5.6 1.4-11 3.6-5.5 2.2-10.6 5l-5.9 3.3-1.6 0.9-10.2-23 9.5-8.6h0.5c2.3 0.3 12.4 1.1 16.7-0.3 4.1-1.4 9.1-5.8 21.1-2.7 5.9 1.5 10.9 8.1 16.6 6z"/><path class="g" d="m937.8 365.9l6.6 7.4v17.9c0 0-5.6 56.6-23.3 62.8-17.8 6.3-49.5-3.6-49.5-3.6 0 0-8.2-21.7-4.3-23 3.8-1.3 33.8-9.3 33.8-9.3 0 0-0.4-33.1 6.2-43 0 0-4.3-30.9 10.5-31.6 14.8-0.6 20 22.4 20 22.4z"/><path class="h" d="m938.8 365.9l6.6 7.4v17.9c0 0-5.6 56.6-23.3 62.8-17.8 6.3-49.5-3.6-49.5-3.6 0 0-8.2-21.7-4.3-23 3.8-1.3 33.8-9.3 33.8-9.3 0 0-0.4-33.1 6.2-43 0 0-4.3-30.9 10.5-31.6 14.8-0.6 20 22.4 20 22.4z"/><path class="g" d="m892.9 289.9q0.1-0.8 0.1-1.7 0-0.8-0.1-1.6-0.1-0.8-0.3-1.6-0.2-0.8-0.5-1.6c-0.9-1.9-3.1-3.5-5.2-2.9-2.8 0.6-4 4.3-6.8 5.2-2.3 0.7-4.8-1-6-3.1-1.1-2.2-1.1-4.8-1.1-7.2q0-4.1 0-8.2c0-3-0.1-6.3-1.9-8.6-2.3-2.9-7.7-4.2-11.3-4.1q-0.9 0-1.8 0.2-0.9 0.2-1.7 0.5-0.8 0.3-1.6 0.8-0.7 0.5-1.4 1.1c-1.9 1.6-4.1 2.8-6.7 2.4q-0.8-0.1-1.6-0.4-0.8-0.4-1.4-0.9-0.6-0.6-1.1-1.3-0.4-0.7-0.7-1.5v-0.1c5.7-7.5 14.2-12.3 23.6-13.2 9.3-0.9 18.6 2.1 25.6 8.4 7 6.2 11.1 15.1 11.2 24.5 0.1 9.4-3.7 18.4-10.5 24.9q0.2-1.3 0.4-2.5 0.2-1.3 0.3-2.5 0.2-1.3 0.3-2.5 0.1-1.3 0.2-2.5z"/><path class="r" d="m846.6 258.6q-0.8-0.2-1.6-0.5-0.8-0.4-1.4-0.9-0.6-0.6-1.1-1.3-0.4-0.6-0.7-1.4c-0.2-1.1-0.2-2.2-0.5-3.3-0.7-2.6-3.5-3.9-5.3-5.9-3.8-3.9-3.5-10.4-0.9-15.1 2.1-3.8 6.2-7 10.5-6.3 2.7 0.5 5 2.4 7.7 2.6 2.6 0.1 5-1.3 7.3-2.4q2.1-1 4.4-1.6 2.3-0.6 4.6-0.8 2.3-0.2 4.6 0 2.4 0.2 4.6 0.8 0.7 0.1 1.4 0.3 0.7 0.3 1.3 0.6 0.6 0.3 1.2 0.7 0.6 0.4 1.1 0.9 0.4 0.4 0.7 0.9 0.4 0.5 0.7 0.9 0.4 0.5 0.7 1 0.3 0.5 0.6 0.9c3.1 3.9 8.6 4.7 13.5 5.6 4.8 0.9 10.4 2.8 12 7.5 1 3.1 0 6.5-0.6 9.7q-0.1 0.3-0.1 0.6-0.1 0.2 0 0.5 0 0.2 0 0.5 0.1 0.2 0.2 0.4c0.8 1.3 2.7 0.8 4.1 1 2.8 0.6 3.5 4.2 3.6 7q0.2 4.9 0.3 9.8 0 0.4 0 0.9 0 0.4 0 0.9-0.1 0.4-0.1 0.9-0.1 0.4-0.2 0.9-0.2 0.6-0.5 1.2-0.3 0.6-0.7 1.2-0.3 0.6-0.7 1.1-0.4 0.5-0.9 1l-10.9 13.1c-4.8 5.7-9.9 12.5-9 20-2.2 1-5-1-5.7-3.4-0.7-2.4-0.2-5 0.4-7.4q0.3-1.6 0.6-3.2 0.2-1.6 0.4-3.2 0.3-1.6 0.4-3.2 0.2-1.6 0.3-3.2 0.1-0.8 0.1-1.7 0-0.8-0.1-1.6-0.1-0.8-0.3-1.6-0.2-0.8-0.5-1.5c-0.9-2-3.1-3.5-5.2-3-2.8 0.6-4 4.3-6.8 5.2-2.3 0.7-4.8-1-6-3.1-1.1-2.2-1.1-4.7-1.1-7.2v-8.2c0-3-0.1-6.2-1.9-8.6-2.3-2.9-7.7-4.2-11.3-4.1q-0.9 0-1.8 0.2-0.9 0.2-1.7 0.5-0.8 0.4-1.6 0.8-0.7 0.5-1.4 1.1c-1.9 1.7-4.1 2.9-6.7 2.4z"/><path class="g" d="m854.1 361.8l10.3 42.3c0 0 8.2-0.1-10.3-42.3z"/><path class="g" d="m889.3 354.7c0 0-13.4 22.1-8.2 44.9l2.5 0.2c0 0-4.5-10.6 5.7-45.1z"/><path class="g" d="m897.8 479.7c0 0 16.6-5.5 17.8 7.2 0 0-3.1-8.7-17.8-7.2z"/><path class="g" d="m850 406.7c0 0-3.3 23 2.7 32.2 0 0-12 4.9-29 4l-2-36.2z"/><path class="g" d="m852.3 436.3l-1.6 0.9-10.2-23 9.5-8.6h0.5c-0.1 1.2-2.8 21 1.8 30.7z"/><path class="h" d="m850 405.7c0 0-3.3 23 2.7 32.2 0 0-12 4.9-29 4l-11.5-36.2z"/><path class="m" d="m821.6 789.8q-0.2 1.2-0.7 2.3-0.5 1.1-1.4 2-0.9 0.9-2 1.5-1.1 0.5-2.3 0.7c-8.9 1.3-30.4 4.7-35.9 7.3-6.9 3.3-34.2 1-35.5-2.3q-0.1-0.5-0.2-1 0-0.5 0-1 0.1-0.6 0.3-1 0.1-0.5 0.4-1 0.3-0.7 0.8-1.4 0.5-0.7 1-1.3 0.6-0.6 1.2-1.1 0.7-0.5 1.4-0.9 0.2-0.2 0.5-0.3 0.2-0.1 0.5-0.2 0.2-0.1 0.5-0.2 0.2-0.1 0.5-0.2c5.1-1.7 14.8-5.4 17.5-9.2 0 0 12.1-10.6 15.5-16.3q0.5-0.8 1.2-1.5 0.7-0.7 1.5-1.3 0.8-0.5 1.7-0.8 1-0.3 1.9-0.3c2.9-0.2 6.1 1.3 7.5 7.6 0 0 15.7 9 20 1.1 0 0 0.6 12.1 3.2 15.5q0.3 0.3 0.5 0.7 0.2 0.4 0.3 0.8 0.1 0.5 0.1 0.9 0.1 0.4 0 0.9z"/><path class="g" d="m821.6 789.8q-0.2 1.2-0.7 2.3-0.5 1.1-1.4 2-0.9 0.9-2 1.5-1.1 0.5-2.3 0.7c-8.9 1.3-30.4 4.7-35.9 7.3-6.9 3.3-34.2 1-35.5-2.3q-0.1-0.5-0.2-1 0-0.5 0-1 0.1-0.6 0.3-1 0.1-0.5 0.4-1 0.3-0.7 0.8-1.4 0.5-0.7 1-1.3 0.6-0.6 1.2-1.1 0.7-0.5 1.4-0.9c4.4 3 14.3 5.8 36.1 2.4 20.7-3.2 31-6.4 36-8.5q0.2 0.3 0.4 0.7 0.2 0.4 0.3 0.8 0.1 0.5 0.1 0.9 0.1 0.4 0 0.9z"/><g style="opacity:.1"><path  d="m911.3 252v-0.2c0.5-2.4 1.2-5 1-7.4q-0.1 0.7-0.2 1.5-0.1 0.7-0.2 1.5-0.1 0.7-0.3 1.5-0.1 0.7-0.3 1.5 0 0.2 0 0.4-0.1 0.2-0.1 0.4 0 0.2 0.1 0.4 0 0.2 0 0.4z"/><path  d="m892.1 282.8q0.2 0.4 0.4 0.9 0.1 0.5 0.2 0.9 0.1 0.5 0.2 1 0 0.5 0 0.9 0.1-0.6 0.1-1.3-0.1-0.7-0.2-1.3-0.1-0.7-0.2-1.3-0.2-0.7-0.5-1.3c-0.9-2-3.1-3.5-5.2-3-2.8 0.7-4 4.3-6.8 5.2-2.3 0.7-4.8-0.9-6-3.1-1.1-2.1-1.1-4.7-1.1-7.1q0-4.2 0-8.3c0-3-0.1-6.2-2-8.5-2.3-3-7.6-4.2-11.2-4.1q-0.9 0-1.8 0.2-0.9 0.1-1.7 0.5-0.8 0.3-1.6 0.8-0.7 0.5-1.4 1.1c-1.9 1.6-4.1 2.8-6.8 2.4q-0.8-0.1-1.5-0.5-0.8-0.3-1.4-0.9-0.6-0.5-1.1-1.2-0.4-0.7-0.7-1.5c-0.2-1.1-0.2-2.2-0.5-3.2-0.8-2.6-3.5-4-5.4-5.9q-0.6-0.8-1.1-1.6-0.5-0.8-0.9-1.7-0.3-0.9-0.5-1.8-0.2-1-0.2-1.9-0.1 1.1 0 2.2 0.1 1.2 0.5 2.3 0.3 1 0.9 2 0.6 1 1.3 1.9c1.9 2 4.6 3.3 5.4 5.9 0.3 1 0.3 2.2 0.5 3.2q0.3 0.8 0.7 1.5 0.5 0.7 1.1 1.3 0.6 0.5 1.4 0.8 0.7 0.4 1.5 0.5c2.7 0.4 4.9-0.8 6.8-2.4q0.7-0.6 1.4-1.1 0.8-0.5 1.6-0.8 0.8-0.3 1.7-0.5 0.9-0.2 1.8-0.2c3.6-0.1 9 1.2 11.2 4.1 1.9 2.3 2 5.6 2 8.6q0 4.1 0 8.2c0 2.4 0 5 1.1 7.1 1.2 2.2 3.7 3.9 6 3.1 2.8-0.8 4-4.5 6.8-5.2 2.1-0.4 4.3 1.2 5.2 3.1z"/><path  d="m919.2 273.7q-0.3 0.7-0.6 1.3-0.2 0.6-0.6 1.1-0.4 0.6-0.8 1.1-0.4 0.6-0.8 1.1l-10.9 13c-4.6 5.5-9.4 11.9-9 18.9 0.3-6.5 4.8-12.3 9-17.4l10.9-13.1q0.4-0.4 0.8-1 0.4-0.5 0.8-1.1 0.4-0.5 0.6-1.1 0.3-0.6 0.6-1.3 0.1-0.4 0.1-0.9 0.1-0.4 0.1-0.9 0.1-0.4 0.1-0.9 0-0.4-0.1-0.9 0 0.3 0 0.5 0 0.3 0 0.6-0.1 0.3-0.1 0.5-0.1 0.3-0.1 0.5z"/><path  d="m890.8 308q0-0.2-0.1-0.5 0-0.2-0.1-0.4 0-0.2 0-0.4-0.1-0.3-0.1-0.5 0 0.4 0 0.8 0 0.4 0 0.8 0.1 0.5 0.1 0.9 0.1 0.4 0.2 0.8c0.8 2.3 3.5 4.3 5.8 3.3q0-0.2-0.1-0.4 0-0.2 0-0.3 0-0.2 0-0.4 0-0.2 0-0.4c-2.3 1-5-1-5.7-3.3z"/></g><path class="g" d="m781.5 769.2c0 0 3.5 6 15.9 0.7"/><path class="g" d="m886.8 770.7c0 0 10.8 12.6 24.3 4.1"/><path class="g" d="m918.1 621.1c0 0-7.6 4.7-7.8 7.4-0.3 2.8 3.9-2 3.9-2z"/><path class="g" d="m921.1 657.5q-1 0.8-2.1 1.4-1.1 0.7-2.3 1.1-1.2 0.5-2.4 0.8-1.3 0.2-2.6 0.3c-5.6 0.3-5.2 7.7-1.4 5.4 3.7-2.2 10.8-9 10.8-9z"/><path class="g" d="m922.5 662.2c0 0-3.6 17.9-6.6 14.4"/><path fill-rule="evenodd" class="s" d="m212 780.1c11.3-8.5 19-7.2 19-7.2l16.9-16.1c0 0 2.2-13 10.4-12.6q0.2 0.1 0.4 0.1 0.3 0.1 0.5 0.1 0.2 0.1 0.4 0.2 0.2 0 0.4 0.1c0-0.9 0-1.9 0-2.8 0 0-2-36.1-2.9-39.2-1-3-5.9-62.2-5.9-62.2 0 0-10.1-13.8-0.7-35 0 0 17.3-64.9 24.8-76.4q0-0.8 0-1.6 0.1-0.7 0.2-1.5 0.2-0.7 0.4-1.4 0.3-0.7 0.6-1.4 0.4-1 0.8-2 0.7-1.7 1.2-3.5 0.5-1.8 0.8-3.6 0.3-1.8 0.5-3.6 0.2-1.8 0.2-3.6v-10.9l-3.5-6.4q0.1 0.1 0.3 0.2 0.1 0.1 0.3 0.1 0.2 0.1 0.3 0.1 0.2 0 0.4 0l-0.5-6.7q-0.2-3-0.2-6 0-2.9 0.3-5.9 0.3-3 0.8-5.9 0.5-2.9 1.2-5.8 0.4-1.7 0.8-3.3 0.4-1.6 0.7-3.3 0.3-1.6 0.6-3.3 0.2-1.7 0.5-3.3c2.8-20.8 7.7-33.1 10.3-38q0.1 0.3 0.1 0.7-0.6-4.4-0.8-8.8v-0.4q-0.2-1.6-0.6-3.1-0.4-1.5-1.1-2.9-0.7-1.4-1.7-2.7-1-1.2-2.2-2.2c-3.2-2.9-7.5-10.2-4.2-28.9-3-8.4-6.5-21.1-4.2-31.2q0.4-2.2 1.4-4.2 0.9-2 2.4-3.7 1.4-1.8 3.2-3.1 1.8-1.3 3.8-2.1 0.2-0.7 0.4-1.4 0.3-0.7 0.6-1.3 0.3-0.7 0.7-1.3 0.4-0.6 0.8-1.1c2.1-2.6 5.5-5.5 3.9-8.4q-0.3-0.3-0.5-0.6-0.2-0.2-0.5-0.5-0.3-0.2-0.6-0.4-0.3-0.2-0.6-0.4c-6.7-3.8-15.8-5.3-18.6-12.4-1.8-4.5-0.1-9.6 2.2-14 2.3-4.3 5.1-8.5 5.7-13.4 0.8-6.8-3.1-13.8-1.1-20.4q0.4-1.1 0.9-2.1 0.5-1 1.1-2 0.6-0.9 1.3-1.8 0.7-0.9 1.5-1.7 2.2-2.4 4.7-4.7 2.5-2.2 5.2-4.2 2.7-1.9 5.6-3.6 2.9-1.7 5.9-3.1c8.1-3.6 16.1-4.4 24.6-6.2 5.1-1.1 9.4-2.2 14.1 0.6 4.6 2.9 7.9 7.4 12.3 10.6 6.3 4.5 14.7 6.2 19.6 12.2 4.1 5.1 4.6 12.3 3.5 18.7-1.1 6.5-3.6 12.6-4.8 19.1-1.2 6.4-0.9 13.6 2.9 18.9q0.2 0.2 0.4 0.5 0.2 0.2 0.4 0.4 0.3 0.2 0.5 0.4 0.3 0.2 0.6 0.3 0.3 0.1 0.7 0.1 0.4 0.1 0.7 0.1 0.4 0 0.7-0.1 0.4 0 0.7-0.1c6.6-0.8 12.9 3.9 15.9 9.8 2.9 5.9 3.2 12.8 2.9 19.4q-0.1 1.3-0.2 2.6-0.1 1.4-0.3 2.7-0.1 1.4-0.4 2.7-0.2 1.3-0.5 2.6c3.6 5.1 8.5 13.7 11 26.4 4.5 22.2 14.6 59.2 14.6 59.2 0 0 4.1 16.1-9.8 32-7.8 8.9-14.1 16.7-18.2 21.9-2.2 2.8-3.4 4.4-3.4 4.4l-0.5 0.8q1.6 4.9 2.8 10 1.2 5.1 2 10.3 0.8 5.1 1.1 10.3 0.4 5.2 0.4 10.5c0 4.6-0.2 8.6-0.5 11.8-0.4 5-1 7.9-1 7.9h-0.2q-1.4 0.2-2.8 0.5l-0.7 0.1c-2.3 6-7.2 20.3-8.7 34.2-0.7 6.5-1.7 12.5-2.6 17.4q-0.7 4.1-1.3 8.3-0.5 4.2-0.8 8.5-0.4 4.2-0.5 8.4 0 4.2 0.1 8.5l0.1 4.7 2.7 12.5c0 0 6.1 40.3-10.8 69.9 0 0-9.2 16.3-10.2 25l0.2-0.1 0.6-0.4q-0.6 1.7-1 3.4-0.4 1.6-0.6 3.4-0.3 1.7-0.3 3.4-0.1 1.7 0 3.5l1-2.4q1.7 2.9 2.8 6 1.2 3.2 1.8 6.4 0.6 3.3 0.6 6.6 0.1 3.3-0.4 6.6c0 0 0.6 4.3-5.7 6.3 0 0-3.3 1.4-2.5 7.3 0.8 5.9-11.4 14.4-27.2 10.9 0 0-13.9 0.3-15.6-2.9-1.6-3.3 1.1-11.9 1.1-11.9 0 0 5.7-9 8.3-12.3 0 0 6.7-13.9 7.5-20.3q0.2-1.3 0.6-2.5 0.5-1.1 1.3-2.2 0.7-1 1.7-1.8 1-0.9 2.1-1.4l3.9-8.8c1.6-6.8 5.3-24.1 3.6-37l1.3-53.7c0 0-9-13.4-9.3-37.8l-4.9-62.3h-0.1l-0.4-0.1h-0.4l-0.2-0.1h-0.2l-0.9-2.8c-1.9 9-5.6 21.3-12.6 31-2.9 4-5.2 7.3-7.1 10.3q-0.9 1.3-1.6 2.5-2.5 4-4 6.8-0.4 0.7-0.8 1.5-0.4 0.7-0.8 1.5-0.4 0.8-0.7 1.6-0.4 0.7-0.7 1.5l-15.9 32q-0.7 1.4-1.2 2.9-0.4 1.5-0.6 3-0.2 1.5-0.1 3.1 0 1.5 0.4 3l1.5 7.2c0 0 8.6 29.1-0.1 51.6l-3.8 39.7-0.1 9.5c0.5 0 1.8 2.6 2.7 4.6 0 0 12.2 22.5 10 28.7-2.1 6.2-28.4 7.6-28.4 7.6 0 0-4.7-2.6-15.7 5.7-11 8.3-33.9 2.1-33.9 2.1 0 0-18.6-7.8-7.3-16.2zm80.6-369.6c0-0.4-0.1-0.9-0.2-1.3q0.1 0.7 0.2 1.3zm110.8 12.3l-19-50.9v6.3l-6 26.3q-0.7 2.8-1 5.6-0.3 2.9-0.2 5.7 0.1 2.9 0.5 5.7 0.4 2.8 1.2 5.6l7.8 27.3h0.1l0.2-0.1 0.4-0.3 0.1 0.2c5.8-8 17.1-24.6 15.9-31.5z"/><path class="t" d="m395.8 536.9c0 0-7.7 18.7-9.6 36.7-0.7 6.4-1.7 12.3-2.6 17.2q-0.7 4.1-1.2 8.2-0.6 4.2-0.9 8.3-0.3 4.2-0.4 8.4 0 4.2 0.1 8.3l0.1 4.7 2.5 12.4c0 0 6 39.7-10.5 69 0 0-9.9 17.5-10.2 25.8l-6.6 2.6-13.4-3.8c0 0 6.4-23.3 4.3-39.6l1.2-53c0 0-8.7-13.2-9-37.2l-5.1-65.9z"/><path class="t" d="m334.5 527.5c0 0-1.7 25.7-14.4 43.4-12.7 17.7-15.4 25.3-15.4 25.3l-15.6 31.7q-0.7 1.3-1.1 2.8-0.4 1.4-0.6 3-0.2 1.5-0.2 3 0.1 1.5 0.4 3l1.6 7.1c0 0 8.4 28.7-0.2 50.9l-4.1 42.9h-23.8c0 0-2-35.6-2.9-38.6-0.9-3.1-5.7-61.5-5.7-61.5 0 0-10-13.6-0.8-34.6 0 0 20.9-78.6 26.4-77.2 5.6 1.3 56.4-1.2 56.4-1.2z"/><g style="opacity:.1"><path  d="m286.8 646.9l-1.6-7.2q-0.3-1.5-0.4-3-0.1-1.5 0.1-3 0.2-1.5 0.7-3 0.4-1.5 1.1-2.8l15.6-31.7c0 0 2.7-7.7 15.4-25.4 12.2-17 14.2-41.3 14.4-43.2l2.4-0.1c0 0-1.7 25.7-14.4 43.4-12.7 17.7-15.4 25.3-15.4 25.3l-15.6 31.7q-0.7 1.3-1.1 2.8-0.4 1.4-0.6 3-0.2 1.5-0.2 3 0.1 1.5 0.4 3l1.6 7.1c0 0 8.4 28.7-0.2 50.9l-4.1 42.9h-2.4l4.1-42.9c8.6-22.2 0.1-50.8 0.1-50.8z"/></g><path class="g" d="m360.8 735.9c0.3-8.3 10.1-25.8 10.1-25.8 16.6-29.3 10.6-69 10.6-69l-2.6-12.4-0.2-4.6q-0.1-4.2 0-8.4 0.1-4.2 0.4-8.4 0.3-4.1 0.8-8.3 0.6-4.1 1.3-8.2c0.9-4.9 1.8-10.7 2.5-17.2 1.9-17.3 9.1-35.3 9.7-36.6l2.4-0.1c0 0-7.7 18.7-9.6 36.7-0.7 6.4-1.7 12.3-2.6 17.2q-0.7 4.1-1.2 8.2-0.6 4.2-0.9 8.3-0.3 4.2-0.4 8.4 0 4.2 0.1 8.3l0.1 4.7 2.5 12.4c0 0 6 39.7-10.5 69 0 0-9.9 17.5-10.2 25.8l-6.6 2.6-1.4-0.4z"/><path class="u" d="m353.1 735.6q1.3 0.6 2.8 0.7 1.4 0.2 2.8 0.1 1.5-0.2 2.8-0.8 1.4-0.5 2.6-1.3-0.9 2.4-1.3 4.9-0.5 2.4-0.6 5-0.1 2.5 0.1 5 0.3 2.5 0.9 5c2.7 10.9-25.4-8.7-25.4-8.7l6-13.8c0 0 2.3 4.4 9.3 3.9z"/><path class="g" d="m355.2 736.2q1.1 0.3 2.3 0.3 1.2-0.1 2.3-0.3 1.2-0.3 2.3-0.8 1-0.5 2-1.2-0.8 2.4-1.3 4.9-0.5 2.5-0.6 5-0.1 2.6 0.1 5.1 0.3 2.5 0.9 5c2.7 10.9-25.4-8.8-25.4-8.8l6-13.7c0 0 1.8 3.4 6.9 3.9 1.5 0.1 3 0.4 4.5 0.6z"/><path class="t" d="m289.3 481.5h11.8v-66.6l-8.9-1.6-2.9 68.2z"/><path class="g" d="m289.3 481.5h11.8v-66.6l-8.9-1.6-2.9 68.2z"/><path class="v" d="m346.4 740.8c0 0 7.4-0.5 10.7 6.2l4.1 3.1 2-4.6q1.6 2.8 2.8 5.9 1.1 3.1 1.7 6.3 0.6 3.2 0.6 6.5 0 3.2-0.5 6.5c-0.3 2.1 0.6 4.2-5.5 6.2 0 0-3.2 1.5-2.5 7.2 0.8 5.8-11.1 14.2-26.7 10.7 0 0-13.6 0.4-15.3-2.8-1.6-3.2 1.1-11.7 1.1-11.7 0 0 5.6-8.8 8.1-12.1 0 0 6.7-13.7 7.5-20 0.7-6.3 8-10.9 11.9-7.4z"/><path class="u" d="m285.2 746.4l0.1-9.4c0 0-13.5 3.9-24.5-0.5 0 0 1 9.4-0.6 10.7-1.5 1.3 5.1 13.4 5.1 13.4l7.3 7.7 12.7-4.6 3.4-10.8c0 0-2.6-6.5-3.5-6.5z"/><path class="g" d="m285.2 746.4l0.1-9.4c0 0-13.5 3.9-24.5-0.5 0 0 1 9.4-0.6 10.7-1.5 1.3 5.1 13.4 5.1 13.4l7.3 7.7 12.7-4.6 3.4-10.8c0 0-2.6-6.5-3.5-6.5z"/><path class="v" d="m259.4 743c0 0 7.2 0.8 6.3 10-0.9 9.1 0.4 0 0.4 0 0 0 7.6 3.1 10.3 7.4 2.7 4.3 7.6-3.9 8-6.2 0.4-2.4 3.4-3.3 3.4-3.3 0 0 12 22.2 9.9 28.3-2.1 6.2-27.9 7.6-27.9 7.6 0 0-4.7-2.7-15.4 5.6-10.8 8.2-33.3 2-33.3 2 0 0-18.3-7.7-7.1-16 11.1-8.4 18.6-7.2 18.6-7.2l16.5-15.9c0 0 2.2-12.8 10.3-12.3z"/><path class="w" d="m345.2 216.9c4.5 2.8 7.8 7.3 12.1 10.5 6.2 4.4 14.4 6.1 19.2 12 4 5.1 4.5 12.1 3.4 18.5-1.1 6.4-3.5 12.5-4.7 18.8-1.1 6.4-0.9 13.5 2.9 18.7q0.2 0.3 0.4 0.5 0.2 0.2 0.4 0.4 0.2 0.2 0.5 0.4 0.2 0.2 0.5 0.3 0.4 0.1 0.7 0.1 0.4 0.1 0.7 0.1 0.4 0 0.7-0.1 0.4 0 0.7-0.1c6.5-0.8 12.7 3.8 15.6 9.7 2.9 5.8 3.1 12.6 2.8 19.1-0.2 5.3-0.8 10.8-3.2 15.6-4 8.1-12.3 13.2-20.5 17q-2 1-4 1.8-2.1 0.9-4.1 1.7-2.1 0.9-4.1 1.6-2.1 0.8-4.2 1.5c-3.8 1.3-7.9 2.5-11.9 1.8-6.8-1.2-11.7-7.4-18.1-9.8-5.3-2-11.2-1.3-16.9-0.8-4.8 0.4-10.3 0.4-13.6-3.1-4.3-4.5-2.4-11.8-0.2-17.6-2.3-0.2-4.5-0.9-6.4-2.3-1.9-1.3-3.4-3.1-4.3-5.3-0.9-2.1-1.2-4.4-0.9-6.7 0.3-2.3 1.3-4.5 2.7-6.2 2.1-2.5 5.4-5.5 3.8-8.3q-0.2-0.3-0.5-0.6-0.2-0.3-0.5-0.5-0.3-0.2-0.6-0.4-0.3-0.2-0.6-0.4c-6.5-3.7-15.5-5.2-18.2-12.2-1.8-4.5-0.1-9.5 2.2-13.8 2.2-4.3 5-8.5 5.6-13.2 0.8-6.8-3-13.8-1.1-20.3q0.4-1 0.9-2 0.4-1 1-2 0.6-0.9 1.3-1.8 0.7-0.9 1.5-1.6 2.2-2.5 4.6-4.7 2.5-2.2 5.1-4.1 2.6-1.9 5.5-3.6 2.8-1.7 5.8-3c7.9-3.6 15.8-4.4 24.1-6.2 5-1.1 9.2-2.2 13.9 0.6z"/><path class="t" d="m301 317.6c0 0-19.1-1-22.7 15.3-3.6 16.3 7.8 39.7 7.8 39.7z"/><path class="g" d="m301 317.6c0 0-19.1-1-22.7 15.3-3.6 16.3 7.8 39.7 7.8 39.7z"/><path class="t" d="m288.8 366.2l7.3 5.7 33.8 1.5 21.1-14.5 21.5-36.8c-13.1-3.4-18.4-12.5-20.4-20.9q-0.5-2.2-0.7-4.4-0.3-2.2-0.4-4.4 0-2.2 0.2-4.4 0.1-2.1 0.5-4.3c0.2-1.5-34.5-17.8-30.2 10q0.2 1.3 0.3 2.6 0.1 1.3 0.2 2.5 0 1.3 0 2.6-0.1 1.3-0.2 2.6c-2 16.3-17.8 13.3-17.8 13.3l-6.1 9.3-7 23z"/><path class="g" d="m321.5 293.7q0.2 1.2 0.3 2.5 0.2 1.3 0.2 2.6 0.1 1.3 0 2.6 0 1.3-0.2 2.6c2.4 1.1 5 1.9 7.6 2.3 2.6 0.5 5.3 0.6 8 0.3 2.6-0.2 5.2-0.8 7.7-1.7 2.5-1 4.9-2.2 7-3.7q-0.4-2.2-0.7-4.4-0.3-2.2-0.3-4.4-0.1-2.2 0.1-4.4 0.1-2.1 0.5-4.3c0.3-1.5-34.4-17.8-30.2 10z"/><path class="t" d="m334.5 305.5c-16.9 0-30.5-13.6-30.5-30.5 0-16.8 13.6-30.5 30.5-30.5 16.9 0 30.5 13.7 30.5 30.5 0 16.9-13.6 30.5-30.5 30.5z"/><path class="h" d="m312.9 360.3c0.8 0 1.5 0.2 2.2 0.2 4 0.4 20.7 1.3 30.3-10 10.6-12.8 24.8-28.5 25.4-29.1l14.4 4.3c0 0-11.4-4-19 17.2-0.8 2.2-1.3 4.6-1.4 6.9-0.1 2.4 0.2 4.7 0.9 7 0.7 2.3 1.7 4.4 3 6.4 1.4 1.9 3 3.6 4.9 5q1.1 0.8 2.2 1.4 1.1 0.7 2.3 1.2 1.2 0.5 2.5 0.8 1.2 0.4 2.5 0.6 0 0 0 0 0 0 0 0.1 0 0 0 0 0 0 0 0v9.3l-5.9 26q-0.7 2.7-0.9 5.5-0.3 2.8-0.2 5.7 0 2.8 0.4 5.6 0.5 2.7 1.2 5.5l9 31.8c-1.3 0.9-57.2 38.9-94.5 12.7 0.2-1.2 4.8-38.5 1.6-56.8q-0.3-1.7-0.6-3.5-0.2-1.8-0.5-3.5-0.2-1.8-0.3-3.6-0.2-1.7-0.3-3.5 0-0.2 0-0.4-0.1-1.5-0.5-3-0.5-1.5-1.2-2.9-0.7-1.4-1.6-2.6-1-1.2-2.2-2.3c-3.3-3-7.9-11-3.4-32.1q0.5-2 1-3.9 0.5-1.9 1.1-3.8 0.7-2 1.4-3.8 0.7-1.9 1.5-3.7l12.5-28.3 11.6 0.2v0.1c-1 1.2-14.4 17.9-15.9 28.6-1.4 10.3-3.1 13.5 16.5 14.7z"/><path class="t" d="m394.9 330.7c0 0 11.3 9.7 15.7 31.6 4.4 22 14.3 58.4 14.3 58.4 0 0 4 16-9.7 31.7-13.6 15.7-22.7 28-22.7 28l-9 13.2q-0.6 0.9-1.3 1.6-0.7 0.7-1.5 1.3-0.9 0.6-1.8 1-0.9 0.4-1.9 0.7c-4.1 1.1-10.4 1.9-15.9-1.1q-1.4-0.9-2.5-2.2-1.1-1.3-1.7-2.9-0.5-1.6-0.5-3.3 0.1-1.7 0.7-3.3l2-4.6c0 0-18.5 11.7-20.1 5.2-1.6-6.4 21.6-12.9 21.6-12.9 0 0 19.1-3.2 23-12.3 0 0 20.5-26.4 18.9-35.4l-19.9-53.2c0 0-24.8-3.3-16.3-31.1 8.5-27.9 28.6-10.4 28.6-10.4z"/><path class="e" d="m276.3 531.3c0 0 45.3 9.1 56 7.9l1.1 3.8c0 0 17.2 3.8 56.1-2.3q3.8-0.6 7.9-1.4l0.9-0.1c0 0 0.6-2.9 1-7.8 0.9-11.2 1.2-32.8-6.6-54.9l-6.5-20.1c0 0-40.5 24.2-67.2 22-2.4-0.2-4.8-0.4-7.2-0.5-5.5-0.2-14 0-19.5-4.4l-11.6 2v33q0 1.8-0.2 3.6-0.1 1.8-0.5 3.6-0.3 1.7-0.8 3.5-0.5 1.7-1.1 3.4-0.4 1-0.8 2-0.4 0.8-0.7 1.6-0.2 0.8-0.4 1.7-0.1 0.8-0.1 1.7 0 0.9 0.2 1.7z"/><path class="g" d="m333.4 532.7v10.3c0 0 19.8 4.4 64.9-3.8 0 0 0.6-2.9 1-7.8-13.9 2.2-52 7.5-65.9 1.3z"/><path class="g" d="m276.3 531.3c0 0 45.3 9.1 56 7.9l1.1 3.8v-10.3c-5.1 2.2-42-6.7-55.3-10q-0.4 0.9-0.8 2-0.4 0.7-0.7 1.5-0.2 0.8-0.4 1.7-0.1 0.8-0.1 1.7 0 0.9 0.2 1.7z"/><path class="h" d="m386.1 519.9l3.4 20.8q3.8-0.6 7.9-1.3c-1-6.1-3.3-20-2.7-22.4l-4.2-3.6z"/><path class="g" d="m386.6 519.4l3.4 20.9q3.8-0.6 7.9-1.4c-1.1-6.1-3.4-20-2.7-22.3l-4.3-3.6z"/><g style="opacity:.1"><path  d="m316.5 478.4c-2.3-0.2-4.7-0.4-7.1-0.5-5.3-0.2-13.5 0-19.1-4.1l2-0.3c5.5 4.4 14 4.2 19.5 4.4 2.4 0.1 4.8 0.3 7.2 0.5q1.1 0.1 2.4 0.1-0.6 0-1.2 0-0.6 0-1.2 0-0.6 0-1.2 0-0.7-0.1-1.3-0.1z"/><path  d="m387.1 540.7q3.8-0.6 7.9-1.4l0.9-0.1c0 0 0.5-2.9 1-7.8 0.9-11.2 1.2-32.8-6.6-54.9l-6.2-19c1.3-0.7 2-1.1 2-1.1l6.6 20.1c7.8 22.1 7.5 43.7 6.5 54.8-0.4 4.9-0.9 7.8-0.9 7.8l-0.9 0.2q-4.1 0.7-7.9 1.3c-18.2 2.9-31.6 3.6-40.8 3.5q4.8 0 9.7-0.3 4.8-0.2 9.6-0.7 4.8-0.4 9.6-1 4.7-0.6 9.5-1.4z"/><path  d="m329.8 539.2v0.1h-1.3q0.8-0.1 1.3-0.1z"/></g><path class="u" d="m391.8 523.8c-1 0-1.7-1.6-1.7-3.6 0-1.9 0.7-3.5 1.7-3.5 0.9 0 1.7 1.6 1.7 3.5 0 2-0.8 3.6-1.7 3.6z"/><path class="t" d="m282.6 448.9c2.8-20.4 7.7-32.6 10.2-37.4 0.1 0.6 0.4 2.8 0.5 3.4 0.5 3 0.1 6.8 0.2 10.6l-2.5 46.4 3.4 14.5c3.2 11.4-8.7 2.4-8.7 2.4-2.5 5.4-7 4.8-7 4.8l-0.6-8.3q-0.2-2.9-0.2-5.9 0-2.9 0.3-5.9 0.2-2.9 0.7-5.8 0.5-2.9 1.3-5.7 0.4-1.6 0.7-3.3 0.4-1.6 0.7-3.2 0.3-1.6 0.6-3.3 0.2-1.6 0.4-3.2z"/><path class="g" d="m282.6 448.9c2.8-20.4 7.7-32.6 10.2-37.4 0.1 0.6 0.4 2.8 0.5 3.4 0.5 3 0.1 6.8 0.2 10.6l-2.5 46.4 3.4 14.5c3.2 11.4-8.7 2.4-8.7 2.4-2.5 5.4-7 4.8-7 4.8l-0.6-8.3q-0.2-2.9-0.2-5.9 0-2.9 0.3-5.9 0.2-2.9 0.7-5.8 0.5-2.9 1.3-5.7 0.4-1.6 0.7-3.3 0.4-1.6 0.7-3.2 0.3-1.6 0.6-3.3 0.2-1.6 0.4-3.2z"/><path class="t" d="m397.4 474c-2.2 2.8-3.3 4.4-3.3 4.4l-9 13.2q-0.6 0.9-1.3 1.6-0.7 0.7-1.6 1.3-0.8 0.6-1.7 1-0.9 0.5-1.9 0.7c-4.1 1.1-10.4 1.9-15.9-1.1q-1.5-0.9-2.6-2.2-1.1-1.3-1.6-2.9-0.6-1.6-0.5-3.3 0.1-1.7 0.7-3.3l2-4.6c0 0-18.5 11.7-20.1 5.2-1.6-6.4 21.5-12.9 21.5-12.9 0 0 19.2-3.2 23-12.3 0 0 1.7-2.1 4-5.4"/><path class="h" d="m386.1 496.2c0 0-21.9-2.2-28.8-14.7l-3.2 10.4c0 0 23 15.8 28.3 13.8z"/><path class="g" d="m385.4 496.1c0 0-21.9-2.2-28.9-14.7l-3.2 10.3c0 0 23 15.9 28.3 13.8z"/><path class="h" d="m286.4 490.3c0 0-7.7 2.7-9.2 1.2l3.5 6.4 6.5-5z"/><path class="g" d="m286.4 490.3c0 0-7.7 2.7-9.2 1.2l3.5 6.4 6.5-5z"/><path class="g" d="m333.4 532.7v-13.2l-3.1 13.5 3.1-0.3z"/><path class="g" d="m364.5 258.9c-1.9 2.6-5.1 3.9-8.2 4.4-3.2 0.4-6.4 0-9.6 0-5-0.1-10.3 0.6-14.4 3.6-2.6 1.9-4.6 4.5-6.6 7-6.2 7.5-14.8 14.6-24.5 13.8q-0.6 0-1.3-0.1-0.6-0.1-1.2-0.4-0.6-0.2-1.1-0.6-0.5-0.4-1-0.8-0.2-0.5-0.5-1-0.2-0.5-0.3-1-0.2-0.5-0.3-1.1 0-0.5 0-1.1-0.2-2.3-0.2-4.6-0.1-2.4 0-4.7 0.1-2.3 0.3-4.7 0.2-2.3 0.5-4.6 0.1-1.4 0.4-2.9 0.2-1.4 0.6-2.8 0.3-1.4 0.8-2.7 0.4-1.4 1-2.7 0.7-1.4 1.4-2.7 0.8-1.2 1.6-2.4 0.9-1.3 1.8-2.4 0.9-1.2 2-2.2 1.2-1.5 2.6-2.8 1.4-1.3 2.9-2.5 1.4-1.2 3-2.2 1.6-1.1 3.3-2 1.7-0.9 3.5-1.5 1.8-0.6 3.7-0.8 1.9-0.2 3.8-0.1 1.9 0.1 3.8 0.5c5.8 1.6 10.4 6.1 15.9 8.5 6.4 2.7 23.2 9.8 16.3 19.6z"/><path class="w" d="m364.5 257.7c-1.9 2.6-5.1 3.9-8.2 4.3-3.2 0.5-6.4 0.1-9.6 0-5 0-10.3 0.7-14.4 3.7-2.6 1.8-4.6 4.5-6.6 7-6.2 7.5-14.8 14.6-24.5 13.8q-0.6 0-1.3-0.1-0.6-0.2-1.2-0.4-0.6-0.3-1.1-0.6-0.5-0.4-1-0.8-0.2-0.5-0.5-1-0.2-0.5-0.3-1-0.2-0.5-0.3-1.1 0-0.5 0-1.1-0.2-2.3-0.2-4.6-0.1-2.4 0-4.7 0.1-2.4 0.3-4.7 0.2-2.3 0.5-4.6 0.1-1.5 0.4-2.9 0.2-1.4 0.6-2.8 0.3-1.4 0.8-2.8 0.4-1.3 1-2.7 0.7-1.3 1.4-2.6 0.8-1.2 1.6-2.5 0.9-1.2 1.8-2.3 0.9-1.2 2-2.2 1.2-1.5 2.6-2.8 1.4-1.3 2.9-2.5 1.4-1.2 3-2.3 1.6-1 3.3-1.9 1.7-0.9 3.5-1.5 1.8-0.6 3.7-0.8 1.9-0.3 3.8-0.2 1.9 0.1 3.8 0.6c5.8 1.6 10.4 6.1 15.9 8.5 6.4 2.7 23.2 9.8 16.3 19.6z"/><path class="t" d="m292.3 473.5l-0.1 3.6-0.8-3.5 0.9-0.1z"/><path class="g" d="m292.3 473.5l-0.1 3.6-0.8-3.5 0.9-0.1z"/><g style="opacity:.1"><path  d="m369.4 339.2c-8.5 27.8 16.2 31.1 16.2 31.1l19.9 53.2c1.6 9-19 35.4-19 35.4-1.4 3.4-5 6-8.9 7.9q0.9-0.6 1.7-1.2 0.7-0.6 1.4-1.4 0.7-0.7 1.2-1.5 0.6-0.8 1-1.7c0.3-0.6 20.6-26.4 18.9-35.5l-19.8-53.2c0 0-24.7-3.2-16.2-31.1 2.8-9.3 7-13.5 11.2-15.1-2.9 2.4-5.6 6.4-7.6 13.1z"/></g><g style="opacity:.1"><path  d="m369.8 364.5q0.5 0.5 0.9 1 0.5 0.5 1 1 0.5 0.5 1 0.9 0.6 0.5 1.1 0.9 1.1 0.7 2.2 1.4 1.1 0.6 2.3 1.1 1.2 0.5 2.5 0.9 1.2 0.3 2.5 0.6c0.8 0.1 0 0 0 0v1q-1.2-0.2-2.3-0.6-1.1-0.4-2.2-0.8-1.1-0.5-2.1-1.1-1-0.6-2-1.3-0.7-0.5-1.4-1.1-0.6-0.6-1.2-1.2-0.6-0.6-1.2-1.3-0.6-0.7-1.1-1.4z"/><path  d="m293.1 404.3q0 0.2 0 0.4 0.1 1.8 0.3 3.5 0.2 1.8 0.4 3.6 0.2 1.8 0.5 3.5 0.2 1.8 0.5 3.6c3 17.2-0.9 51.4-1.5 56.2q-0.4-0.3-1-0.7c-323.5-494.5-323.5-494.5-323.5-494.5 323.7 493.4 328.3 456.1 325.1 437.8q-0.3-1.8-0.6-3.5-0.2-1.8-0.4-3.5-0.2-1.8-0.4-3.6-0.2-1.8-0.3-3.5 0-0.2 0-0.4 0-1-0.2-2-0.3-1-0.6-2-0.3-1-0.8-1.9-0.5-0.9-1.1-1.7 0.8 0.9 1.4 1.9 0.7 1.1 1.1 2.2 0.5 1.1 0.8 2.3 0.2 1.1 0.3 2.3z"/><path  d="m311.5 318.1l-9.8-0.2q0 0 0 0 0 0 0 0 0 0 0 0 0 0 0 0l-12.5 28.2q-0.8 1.9-1.5 3.7-0.8 1.9-1.4 3.8-0.6 1.9-1.1 3.9-0.6 1.9-1 3.9c-3.6 17.1-1.4 25.6 1.4 29.8-3.1-3.7-6.3-12.1-2.3-31q0.4-2 0.9-3.9 0.6-2 1.2-3.9 0.6-1.9 1.3-3.7 0.7-1.9 1.5-3.7l12.6-28.3 11.6 0.2v0.1c-0.1 0.1-0.4 0.5-0.9 1.1z"/><path  d="m385.2 325.7l0.2 0.1z"/><path  d="m381.6 325.6l-9.8-3c-0.5 0.7-14.7 16.4-25.4 29.1-9.5 11.4-26.2 10.5-30.2 10.1q-1.1-0.1-2.2-0.2c-10.9-0.7-15.2-2-16.7-4.8 2.1 2 6.6 3 15.8 3.6 0.7 0 1.5 0.1 2.2 0.2 4 0.4 20.7 1.2 30.2-10.1 10.7-12.7 24.9-28.5 25.4-29.1l14.3 4.3q-0.4-0.1-0.9-0.1-0.4-0.1-0.9-0.1-0.4 0-0.9 0-0.4 0-0.9 0.1z"/></g><path class="g" d="m265.6 757.5c0 0-13.8 3.8-16.5-2.2"/><path class="g" d="m353.2 754.7c0 0-16 4.1-19.7-2.3"/><path class="x" d="m583.9 745.7c0.3-2 0.6-4 1-6 1.5-8.6-0.9-16.9-2-20.3-0.4-1-0.7-1.6-0.7-1.6-6.3-1.7-31.5 17.7-40.6 25.1q-4.8 0-10.4 0.4-2.4 0.1-4.9 0.1c-1.5 0-3.6 0-6 0-8.5-6.8-34.8-27.4-41.3-25.6 0 0-0.3 0.6-0.6 1.6-1.3 3.4-3.7 11.6-2.1 20.3 0.4 2 0.7 4 0.9 6 0.5 4.4 2.4 12.8 9 18.5 1.5 10.4 6.8 24.1 10.9 32.4q0.1 0.5 0.3 1.1 0.1 0.6 0.3 1.2 0.2 0.6 0.4 1.1 0.2 0.6 0.4 1.1c-1.7 6.6-3.6 15.2-3.1 18 0 0-8.9-2.1-9.8 8.6q0 0.1 0 0.3c-3.2 1.5-7.2 4.8-2.7 11.9q0.2 0.3 0.5 0.6 0.2 0.3 0.5 0.5 0.3 0.3 0.7 0.5 0.3 0.2 0.7 0.3c0.8 0.3 1.5 0.3 1.5-0.8l5.5 6.2c0 0 10.1 1.2 10.2-4.7l0.6 0.1q2 0.3 4.2 0.5l0.7 2.3c0 0-7.6-0.1-5.5 4.5 0 0 1.9 1.8 2.5 1.2 0 0-1 3 3 3 0 0 4.2 2.2 5.9 0.6 1.6-1.6 5-4 5.4-5 0-0.2 0.1-2.6 0.1-5.9h0.7c8.4 0.2 17.3-0.1 25.5-0.5h0.6c0 3.6 0.1 6.2 0.2 6.5 0.3 1 3.7 3.3 5.4 5 1.6 1.6 5.8-0.7 5.8-0.7 4 0 3-3 3-3 0.6 0.6 2.5-1.1 2.5-1.1 2.1-4.7-5.5-4.5-5.5-4.5l0.9-3 4.2-0.4h0.7c-0.4 6.3 10.1 5.1 10.1 5.1l5.6-6.3c-0.1 1.2 0.7 1.2 1.5 0.9q0.3-0.2 0.7-0.4 0.3-0.2 0.6-0.4 0.3-0.2 0.5-0.5 0.2-0.3 0.4-0.6c6.9-10.7-5.7-12.9-5.7-12.9q-0.2-0.1-0.3-0.1-0.2-0.1-0.3-0.1-0.2 0-0.3 0-0.2 0-0.3 0 0-0.3 0-0.6 0.1-0.5 0.1-1 0.1-0.6 0.1-1.1 0-0.5 0-1.1 0-0.5-0.1-1c-0.5-1.9-3.6-5-7.5-5.5-2.5-0.3-2.6-12-2.3-20.2q0.1-0.6 0.2-1.1 0-0.6 0.1-1.2 0-0.6 0.1-1.2 0-0.5 0-1.1 0-1-0.1-1.9 0-1-0.1-1.9-0.2-0.9-0.4-1.8-0.2-1-0.4-1.9c5-8.4 9-17.3 9.4-20 6.6-5.7 8.5-14.1 8.9-18.5z"/><path class="h" d="m574.3 826.8c-0.4 5.5-1.5 14.4-1.5 14.4 0 0-4.5 0.5-11.3 1.1l-4.7 0.4c-3.6 0.3-7.6 0.6-11.9 0.9-7.8 0.4-16.4 0.7-24.6 0.5-4-0.1-8-0.3-11.6-0.7q-2.5-0.2-4.7-0.6c-9.3-1.4-16-4-16.6-8.7q-0.1-0.7-0.2-1.5 0-0.7-0.1-1.5 0-0.7 0-1.5 0-0.7 0.1-1.5c0.9-10.5 9.4-8.4 9.4-8.4-0.5-2.9 1.5-11.9 3.2-18.4 1.1-4.1 2-7.2 2-7.2l60.1-4h0.2q0.6 0 1.2 0.2 0.6 0.2 1 0.7 0.4 0.4 0.6 1 0.2 0.6 0.2 1.2c-0.4 7.2-0.9 23.7 2.1 24 3.7 0.5 6.7 3.5 7.2 5.4q0 0.5 0 1 0 0.6 0 1.1 0 0.5 0 1-0.1 0.5-0.1 1.1z"/><path class="h" d="m523.2 747.6c0 0-22.7 27.3-33.6 19.8q-0.4-0.3-0.7-0.6c-7.4-5.6-9.3-14.5-9.8-19.1-0.2-2-0.6-3.9-0.9-5.8-1.5-8.5 0.8-16.6 2-20 0.3-1 0.6-1.6 0.6-1.6 7.5-2.1 42.4 27.3 42.4 27.3z"/><path class="e" d="m511 750.1c0 0-7.1 5-17.2 13.3q-0.6 0.4-1.2 0.9-0.6 0.5-1.2 0.9-0.6 0.4-1.3 0.8-0.6 0.4-1.3 0.8c-7.3-5.6-9.3-14.5-9.8-19.1-0.2-2-0.5-3.9-0.9-5.8-1.5-8.5 0.8-16.6 2-20 14.2 1 30.9 28.2 30.9 28.2z"/><path class="y" d="m511 750.1c0 0-7.1 5-17.2 13.3q-0.6 0.4-1.2 0.9-0.6 0.5-1.2 0.9-0.6 0.4-1.3 0.8-0.6 0.4-1.3 0.8c-7.3-5.6-9.3-14.5-9.8-19.1-0.2-2-0.5-3.9-0.9-5.8-1.5-8.5 0.8-16.6 2-20 14.2 1 30.9 28.2 30.9 28.2z"/><path class="g" d="m503.2 747.5c0 0-3.8 2.6-9.1 7q-0.4 0.3-0.7 0.5-0.3 0.3-0.6 0.5-0.4 0.2-0.7 0.4-0.3 0.2-0.7 0.4c-3.9-3-5-7.7-5.2-10.1q-0.2-1.6-0.5-3.2-0.2-1.3-0.2-2.7 0-1.3 0.1-2.7 0.2-1.3 0.5-2.6 0.3-1.3 0.7-2.6c7.5 0.5 16.4 15.1 16.4 15.1z"/><path class="h" d="m537.9 747.6c0 0 22.7 27.3 33.6 19.8q0.4-0.3 0.7-0.6c7.4-5.6 9.3-14.5 9.8-19.1 0.2-2 0.5-3.9 0.9-5.8 1.5-8.5-0.8-16.6-2-20-0.4-1-0.6-1.6-0.6-1.6-7.6-2.1-42.4 27.3-42.4 27.3z"/><path class="e" d="m550.1 750.1c0 0 7.1 5 17.2 13.3q0.6 0.4 1.2 0.9 0.6 0.5 1.2 0.9 0.6 0.4 1.2 0.8 0.7 0.4 1.3 0.8c7.4-5.6 9.3-14.5 9.8-19.1 0.2-2 0.6-3.9 0.9-5.8 1.5-8.5-0.8-16.6-2-20-14.1 1-30.8 28.2-30.8 28.2z"/><path class="y" d="m550.1 750.1c0 0 7.1 5 17.2 13.3q0.6 0.4 1.2 0.9 0.6 0.5 1.2 0.9 0.6 0.4 1.2 0.8 0.7 0.4 1.3 0.8c7.4-5.6 9.3-14.5 9.8-19.1 0.2-2 0.6-3.9 0.9-5.8 1.5-8.5-0.8-16.6-2-20-14.1 1-30.8 28.2-30.8 28.2z"/><path class="g" d="m557.9 747.4c0 0 3.8 2.7 9.1 7q0.3 0.3 0.6 0.5 0.4 0.3 0.7 0.5 0.3 0.2 0.7 0.4 0.3 0.3 0.7 0.5c3.8-3 4.9-7.7 5.1-10.2 0.2-1 0.3-2 0.5-3.1q0.2-1.3 0.2-2.7 0.1-1.3-0.1-2.6-0.1-1.4-0.4-2.7-0.3-1.3-0.7-2.5c-7.5 0.5-16.4 14.9-16.4 14.9z"/><path class="g" d="m561.9 790.1c-2.9 4.5-5.9 8.6-8.7 11-9 8-47.8 4.9-50.4 4.5-0.5-0.1-1.6-1.7-3-4.3 1.1-4.1 2-7.2 2-7.2z"/><path class="h" d="m531.1 745.3q-2.3 0.2-4.7 0.2c-8.1-0.2-35.4 0.2-38.5 11.2-3.5 13 12.4 47.8 14.9 48.2 2.5 0.5 41.4 3.6 50.4-4.4 9-8 20.8-33 20.2-35.2 0 0 11.2-23.7-42.3-20z"/><path class="g" d="m530.3 766.4c0 0-20-3.1-29.4 16.6q-1.4 2.9-2 6-0.6 3.2-0.4 6.3 0.2 3.2 1.3 6.2 1.1 3.1 2.9 5.7c3.1 4.4 7.7 7.7 14 5 14.2-5.8 13.6-45.8 13.6-45.8z"/><path class="g" d="m529.6 765.1c0 0-20-3-29.3 16.6q-1.4 2.9-2 6.1-0.7 3.1-0.4 6.3 0.2 3.2 1.3 6.2 1 3 2.8 5.6c3.2 4.4 7.7 7.7 14.1 5 14.2-5.8 13.5-45.8 13.5-45.8z"/><path class="e" d="m529.6 765.8c0 0-20-3.1-29.3 16.6q-1.4 2.9-2 6-0.7 3.1-0.4 6.3 0.2 3.2 1.3 6.2 1 3 2.8 5.7c3.2 4.4 7.7 7.6 14.1 5 14.2-5.9 13.5-45.8 13.5-45.8z"/><path class="y" d="m529.6 765.8c0 0-20-3.1-29.3 16.6q-1.4 2.9-2 6-0.7 3.1-0.4 6.3 0.2 3.2 1.3 6.2 1 3 2.8 5.7c3.2 4.4 7.7 7.6 14.1 5 14.2-5.9 13.5-45.8 13.5-45.8z"/><path class="z" d="m508.1 783c0 0-2.8 2.5-1.7 3.1 1.1 0.7 1.7-3.1 1.7-3.1z"/><path class="z" d="m511 786.2c0 0-1.5 3.3-0.4 3.7 1.1 0.3 1.7-2.4 1.7-2.4z"/><path class="z" d="m504.4 791.2c0 0-1.4 3.9 0 3.9 1.5 0 0-3.9 0-3.9z"/><path class="A" d="m502.6 801.6c0 0 2.9 7.4 10.5 6.9"/><path class="A" d="m509.4 803.8c0.1 0 3.1 2.9 6.3 0.8"/><path class="g" d="m532.8 766.4c0 0 20-3.1 29.4 16.6q1.4 2.9 2 6 0.6 3.2 0.4 6.3-0.2 3.2-1.3 6.2-1 3.1-2.8 5.7c-3.2 4.4-7.7 7.7-14.1 5-14.2-5.8-13.6-45.8-13.6-45.8z"/><path class="g" d="m533.4 765.1c0 0 20-3 29.4 16.6q1.4 2.9 2 6.1 0.6 3.1 0.4 6.3-0.2 3.2-1.3 6.2-1 3-2.9 5.6c-3.1 4.4-7.7 7.7-14 5-14.2-5.8-13.6-45.8-13.6-45.8z"/><path class="e" d="m533.4 765.8c0 0 20-3.1 29.4 16.6q1.4 2.9 2 6 0.6 3.1 0.4 6.3-0.2 3.2-1.3 6.2-1 3-2.9 5.7c-3.1 4.4-7.7 7.6-14 5-14.2-5.9-13.6-45.8-13.6-45.8z"/><path class="y" d="m533.4 765.8c0 0 20-3.1 29.4 16.6q1.4 2.9 2 6 0.6 3.1 0.4 6.3-0.2 3.2-1.3 6.2-1 3-2.9 5.7c-3.1 4.4-7.7 7.6-14 5-14.2-5.9-13.6-45.8-13.6-45.8z"/><path class="z" d="m555 783c0 0 2.7 2.5 1.7 3.1-1.1 0.7-1.7-3.1-1.7-3.1z"/><path class="z" d="m552.1 786.2c0 0 1.5 3.3 0.4 3.7-1.1 0.3-1.7-2.4-1.7-2.4z"/><path class="z" d="m558.7 791.2c0 0 1.4 3.9 0 3.9-1.5 0 0-3.9 0-3.9z"/><path class="A" d="m560.5 801.6c0 0-3 7.4-10.6 6.9"/><path class="A" d="m553.6 803.8c0 0-3 2.9-6.3 0.8"/><path class="B" d="m522 822.8c0.6-0.1 10.5-4.4 20.8 0z"/><path class="g" d="m504 842.9c-9.3-1.4-16-4.1-16.6-8.8q-0.1-0.7-0.2-1.5 0-0.7-0.1-1.5 0-0.7 0-1.5 0-0.7 0.1-1.5 0.4-0.2 0.9-0.4 0.4-0.2 0.8-0.3 0.5-0.2 0.9-0.3 0.5-0.2 1-0.3c1.6-0.4 3.7-0.1 8.1 1.2 4.5 1.2 4.1 6.4 5 13.2q0.1 0.2 0.1 0.4 0 0.2 0 0.4 0 0.2 0 0.4 0 0.2 0 0.5z"/><path class="h" d="m490.1 827.5c0 0-12.1 2.2-5.5 12.7q0.2 0.3 0.4 0.6 0.2 0.2 0.5 0.5 0.3 0.2 0.6 0.4 0.4 0.2 0.7 0.3c0.8 0.3 1.5 0.3 1.4-0.8l5.4 6.1c0 0 10.7 1.3 9.8-5.5-1-6.8-0.7-12-5-13.2-4.4-1.2-6.6-1.6-8.3-1.1z"/><path fill-rule="evenodd" class="C" d="m493 835.5c0 0 2.6 5.9 6.2 1"/><path fill-rule="evenodd" class="C" d="m487.1 836.9c0 0 1.3 5.5 6.4 1.4"/><path class="g" d="m574.3 826.8c-0.4 5.5-1.5 14.4-1.5 14.4 0 0-4.5 0.5-11.3 1.1q-0.1-0.1-0.1-0.2 0-0.2 0-0.3 0-0.2 0-0.3 0-0.2 0.1-0.3c0.9-6.8 0.6-12 5-13.2 4.1-1.1 6.2-1.5 7.8-1.2z"/><path class="h" d="m575.4 827.5c0 0 12.1 2.2 5.5 12.7q-0.2 0.3-0.4 0.6-0.3 0.2-0.5 0.5-0.3 0.2-0.6 0.4-0.4 0.2-0.7 0.3c-0.8 0.3-1.5 0.3-1.4-0.8l-5.4 6.1c0 0-10.7 1.3-9.8-5.5 1-6.8 0.7-12 5-13.2 4.4-1.2 6.6-1.6 8.3-1.1z"/><path class="A" d="m572.5 834.5c0 0-2.6 5.9-6.2 1"/><path class="A" d="m578.4 836.9c0 0-1.4 5.5-6.4 1.4"/><path class="g" d="m520.3 844.1c-4-0.1-8-0.3-11.6-0.7l-3.6-12.2q-0.1-0.3-0.2-0.6 0-0.2-0.1-0.5 0-0.3 0-0.6-0.1-0.3-0.1-0.5c0.1-2.1 0.9-4 2.4-5.4 1.4-1.4 3.4-2.2 5.4-2.2 2 0 3.9 0.8 5.4 2.2 1.4 1.4 2.3 3.3 2.4 5.3 0 4.8 0.1 10.8 0 15.2z"/><path class="h" d="m504.4 831.2l4.3 14.4c0 0-7.3-0.2-5.3 4.4 0 0 1.9 1.7 2.5 1.1 0 0-1 3 2.8 3 0 0 4.1 2.2 5.7 0.6 1.6-1.5 4.9-3.9 5.2-4.8 0.2-0.7 0.1-12.7 0.1-21q-0.1-1.6-0.7-3-0.6-1.4-1.6-2.5-1.1-1.1-2.6-1.7-1.4-0.5-2.9-0.5c-1.2 0-2.4 0.2-3.5 0.8-1.1 0.5-2 1.3-2.8 2.3-0.7 1-1.2 2.1-1.4 3.3-0.2 1.2-0.1 2.4 0.2 3.6z"/><path class="A" d="m510.2 849.3c0 0-3.2 3-1.5 4.8"/><path class="A" d="m508.8 847.4c0 0-2.9 1-2.9 3.7"/><path class="g" d="m560.6 829q0 0.2-0.1 0.5 0 0.3 0 0.6-0.1 0.3-0.1 0.5-0.1 0.3-0.2 0.6l-3.4 11.6c-3.5 0.2-7.6 0.5-11.8 0.8 0-4.4 0-10.1 0.1-14.7 0-2.1 0.8-4 2.3-5.5 1.4-1.4 3.4-2.3 5.5-2.2 2 0 4 0.8 5.4 2.2 1.5 1.5 2.3 3.5 2.3 5.5z"/><path class="h" d="m560.8 831.2l-4.2 14.4c0 0 7.3-0.2 5.3 4.4 0 0-1.9 1.7-2.5 1.1 0 0 0.9 3-2.8 3 0 0-4.1 2.2-5.7 0.6-1.6-1.5-4.9-3.9-5.2-4.8-0.2-0.7-0.1-12.7-0.1-21q0-1.6 0.6-3 0.6-1.4 1.7-2.5 1.1-1.1 2.5-1.7 1.5-0.5 3-0.5c1.2 0 2.4 0.2 3.5 0.8 1.1 0.5 2 1.3 2.7 2.3 0.8 1 1.2 2.1 1.5 3.3 0.2 1.2 0.1 2.4-0.3 3.6z"/><path class="A" d="m555.1 849.3c0 0 3.1 3 1.5 4.8"/><path class="A" d="m556.5 847.4c0 0 2.9 1 2.9 3.7"/><path class="g" d="m529.7 762.6c0 0-14.8-0.4-15.3 11-0.5 11.5 23.1 6.6 23.1 6.6 0 0 9.9-1.3 8.2-8.3-1.7-6.9-5.3-8.6-16-9.3z"/><path class="g" d="m529.7 761.4c0 0-14.8-0.5-15.3 11-0.5 11.4 23.1 6.6 23.1 6.6 0 0 9.9-1.3 8.2-8.3-1.7-7-5.3-8.7-16-9.3z"/><path class="B" d="m529.7 762c0 0-14.8-0.5-15.3 11-0.5 11.5 23.1 6.6 23.1 6.6 0 0 9.9-1.3 8.2-8.3-1.7-7-5.3-8.7-16-9.3z"/><path class="g" d="m496.6 819.8c0 0 5 1.8 6 5.2"/><path class="g" d="m567.1 817.3c0 0-3.5 1.5-3.3 7.7"/><path class="e" d="m497.6 846.1c-1.1 0.6-2.8-0.3-3.9-2.2-1-1.8-1-3.8 0.1-4.5 1.1-0.6 2.9 0.4 3.9 2.2 1.1 1.9 1 3.9-0.1 4.5z"/><path class="e" d="m571.1 843.5c-1.1 1.8-2.8 2.8-3.9 2.2-1.1-0.7-1.2-2.7-0.1-4.5 1.1-1.8 2.8-2.8 3.9-2.2 1.1 0.7 1.2 2.7 0.1 4.5z"/><path class="y" d="m497.6 846.1c-1.1 0.6-2.8-0.3-3.9-2.2-1-1.8-1-3.8 0.1-4.5 1.1-0.6 2.9 0.4 3.9 2.2 1.1 1.9 1 3.9-0.1 4.5z"/><path class="y" d="m571.1 843.5c-1.1 1.8-2.8 2.8-3.9 2.2-1.1-0.7-1.2-2.7-0.1-4.5 1.1-1.8 2.8-2.8 3.9-2.2 1.1 0.7 1.2 2.7 0.1 4.5z"/><path class="b" d="m192.6 720.6c-14.9 0-26.9-2-26.9-4.5 0-2.6 12-4.6 26.9-4.6 14.9 0 26.9 2 26.9 4.6 0 2.5-12 4.5-26.9 4.5z"/><path class="b" d="m86.5 785.1c-14.9 0-26.9-2-26.9-4.5 0-2.5 12-4.6 26.9-4.6 14.9 0 26.9 2.1 26.9 4.6 0 2.5-12 4.5-26.9 4.5z"/><path class="h" d="m58.5 729.7c-22.3 0-40.2-3.1-40.2-6.8 0-3.8 17.9-6.8 40.2-6.8 22.2 0 40.2 3 40.2 6.8 0 3.7-18 6.8-40.2 6.8z"/><path class="h" d="m41.8 711.7q-0.6-0.5-1.2-1.2-0.6-0.6-1.1-1.4-0.5-0.7-0.9-1.5-0.4-0.8-0.6-1.6c-0.5-2.3 0.5-5.1 2.7-5.9 2.4-1 5.1 0.7 7.1 2.5 2 1.7 4.2 3.6 6.9 3.3q-1.1-0.9-1.8-2.1-0.7-1.1-1.2-2.4-0.4-1.3-0.5-2.7-0.1-1.3 0.2-2.6 0.1-0.3 0.1-0.6 0.1-0.2 0.2-0.5 0.1-0.3 0.3-0.5 0.1-0.2 0.3-0.4c1.4-1.5 3.9-0.9 5.5 0.3 5.2 3.6 6.6 10.7 6.7 17.1 0.5-2.3 0.1-4.7 0.1-7 0-2.4 0.6-5 2.6-6.3q0.5-0.2 0.9-0.4 0.5-0.2 1-0.3 0.5-0.1 1.1-0.2 0.5-0.1 1-0.1c2.3 0 4.9 0.2 6.5 1.9 2 2.1 1.5 5.7-0.2 8-1.7 2.3-4.4 3.8-6.8 5.4q-0.7 0.5-1.4 1-0.7 0.5-1.3 1.1-0.6 0.5-1.1 1.2-0.6 0.6-1 1.3-0.1 0.1-0.1 0.2-0.1 0.1-0.1 0.2-0.1 0.1-0.1 0.2 0 0.1-0.1 0.2l-14.6 0.1q-1.2-0.7-2.4-1.4-1.2-0.7-2.3-1.4-1.2-0.8-2.3-1.7-1-0.8-2.1-1.8z"/><path class="b" d="m1029.8 758.7c-14.9 0-26.9-2.1-26.9-4.6 0-2.5 12-4.5 26.9-4.5 14.9 0 27 2 27 4.5 0 2.5-12.1 4.6-27 4.6z"/><path class="D" d="m1011.8 733c0 0 15.3-0.5 20-3.8 4.6-3.3 23.6-7.2 24.7-1.9 1.2 5.2 23.1 26.2 5.8 26.4-17.4 0.1-40.3-2.7-44.9-5.5-4.7-2.8-5.6-15.2-5.6-15.2z"/><path class="E" d="m1062.6 751.9c-17.4 0.1-40.3-2.7-44.9-5.6-3.6-2.1-5-9.8-5.4-13.3h-0.6c0 0 1 12.4 5.6 15.2 4.6 2.8 27.6 5.6 44.9 5.5 5 0 6.8-1.8 6.7-4.5-0.7 1.7-2.6 2.7-6.3 2.7z"/></svg>