<svg version="1.2" xmlns="http://www.w3.org/2000/svg" viewBox="0 0 510 320" width="510" height="320">
	<title>NyxNet-logo-black-transparanet</title>
	<style>
		.s0 { fill: #ffffff } 
	</style>
	<filter id="f0">
		<feFlood flood-color="#000000" flood-opacity="1" />
		<feBlend mode="normal" in2="SourceGraphic"/>
		<feComposite in2="SourceAlpha" operator="in" />
	</filter>
	<g id="Logo" filter="url(#f0)">
		<g id="Icon">
			<g id="Layer">
				<g id="Layer">
					<g id="Layer">
						<path id="Layer" fill-rule="evenodd" class="s0" d="m330.9 66.8l-8.7 63.8c-0.9 6.4-6.1 13.1-12 15.5l-59.6 24.4c-2.1 0.8-4.5 1.3-7 1.3-4.6 0-9.3-1.5-12.5-4l-50.9-39.3c-5.1-4-8.3-11.8-7.4-18.3l8.7-63.7c0.8-6.4 6-13.1 12-15.6l59.5-24.3c2.1-0.9 4.5-1.3 7.1-1.3 4.6 0 9.3 1.5 12.4 3.9l50.9 39.4c5.1 4 8.3 11.8 7.5 18.2zm-69.6-0.9l-37.8 15.5 37.4 29.3 6.4-47.2zm-68.5-17.9l-4.9 35.6 81.6-33.4 3.5-26.2-7.5-5.8c-1.2-0.9-3.4-1.5-5.4-1.5-1.1 0-2 0.1-2.7 0.4l-59.6 24.4c-2.2 0.9-4.7 4.1-5 6.5zm92.2 96l-23.5-18.4-50.5-39.1-24.8 10.2-2.1 15c-0.3 2.4 1.2 6.2 3.1 7.7l50.9 39.4c1.2 0.9 3.4 1.5 5.5 1.5 1 0 2-0.2 2.7-0.4zm31.4-86.5l-33-25.5-11.5 87.3 25.3 19.7 8.6-3.5c2.2-1 4.7-4.2 5-6.6l8.7-63.7c0.3-2.4-1.2-6.2-3.1-7.7z"/>
					</g>
				</g>
			</g>
		</g>
		<g id="Text">
			<g id="Layer">
				<g id="Layer">
					<g id="Layer">
						<path id="Layer" fill-rule="evenodd" class="s0" d="m95.5 194.3v94.3h-25.6l-32.3-56.6v56.6h-24.2v-94.3h25.6l32.3 56.6v-56.6zm33.7 118.5q-7.2 0-17.6-1.3v-17.5h12.2q5.1 0 6.6-2.8 1.6-2.9-0.6-8l-27.6-66h24.9l16.9 45.8 14.1-45.8h47.8l11.5 21.6 11.4-21.6h26.3l-21.6 35.7 22.3 35.7h-26.3l-12.1-21.5-12.1 21.5h-26.3l22.2-35.7-19.4-32.2-25.7 70.6q-3.9 10.6-10.1 16.1-6.2 5.4-16.8 5.4zm215.4-118.5v94.3h-25.6l-32.3-56.6v56.6h-24.2v-94.3h25.6l32.3 56.6v-56.6zm80.8 76.1v16.8q-26 2.8-47.1 2.8-9.2 0-14.7-5.6-5.5-5.5-5.5-14.7v-32.3q0-10.1 5.7-15.8 5.7-5.7 15.8-5.7h27q10.1 0 15.8 5.7 5.7 5.7 5.7 15.8v24.9h-46.5v5.4q0 2 1.4 3.4 1.3 1.3 3.3 1.3 13.4 0 39.1-2zm-26.2-37.7h-12.2q-5.4 0-5.4 5.4v7.4h22.9v-7.4q0-5.4-5.3-5.4zm90.8 38.4v17.5q-13 1.4-25.5 1.4-9.2 0-14.7-5.6-5.5-5.5-5.5-14.7v-34.3h-8.1v-18.2h8.1l2.6-16.1h20.9v16.1h16.9v18.2h-16.9v31q0 2 1.4 3.3 1.3 1.4 3.3 1.4z"/>
					</g>
				</g>
			</g>
		</g>
	</g>
</svg>